<svg width="331" height="432" viewBox="0 0 331 432" fill="none" xmlns="http://www.w3.org/2000/svg">
<g clip-path="url(#clip0_478_2504)">
<path fill-rule="evenodd" clip-rule="evenodd" d="M52.3402 90.6597C51.6602 88.9597 52.0002 86.9397 53.3802 85.5597C55.2202 83.7197 58.2102 83.7197 60.0502 85.5597L81.1702 106.68C83.0102 108.52 83.0102 111.51 81.1702 113.35C80.1402 114.38 78.7602 114.83 77.4302 114.71L76.6902 115.4C72.1602 119.64 65.3902 126.23 61.1002 130.76C62.7102 132.61 62.6302 135.42 60.8702 137.18C59.0302 139.02 56.0402 139.02 54.2002 137.18L31.3102 114.29C30.7602 113.74 30.3802 113.09 30.1602 112.4C30.0402 112.34 29.9302 112.25 29.8302 112.14C29.4002 111.65 29.4502 110.91 29.9302 110.48L29.9602 110.45C30.0702 109.41 30.5202 108.41 31.3102 107.61C32.2502 106.67 33.4902 106.21 34.7202 106.23L52.3402 90.6597Z" fill="#59A86D"/>
<path fill-rule="evenodd" clip-rule="evenodd" d="M121.34 88.78C118.74 88.78 116.62 86.67 116.62 84.06V44.26C116.62 32.01 121.63 20.88 129.69 12.82C137.76 4.75 148.89 -0.25 161.13 -0.25H247.4C259.65 -0.25 270.78 4.76 278.84 12.82C286.91 20.89 291.91 32.02 291.91 44.26V84.06C291.91 86.66 289.8 88.78 287.19 88.78C281.66 88.78 262.43 88.78 256.89 88.78C254.29 88.78 252.17 86.67 252.17 84.06V44.26C252.17 43.85 252.03 43.48 251.81 43.23C251.71 43.12 251.63 43.05 251.59 43.05H156.91C156.87 43.05 156.79 43.12 156.69 43.23C156.47 43.48 156.33 43.84 156.33 44.26V84.06C156.33 86.66 154.22 88.78 151.61 88.78C146.1 88.78 126.88 88.78 121.34 88.78Z" fill="#F9EAB0"/>
<path fill-rule="evenodd" clip-rule="evenodd" d="M99.95 79.3398H287.21C299.12 79.3398 309.94 84.2099 317.79 92.0499C325.63 99.8899 330.5 110.72 330.5 122.63V388.44C330.5 400.35 325.63 411.17 317.79 419.02C309.95 426.86 299.12 431.73 287.21 431.73H74C62.09 431.73 51.27 426.86 43.42 419.02C35.58 411.18 30.71 400.35 30.71 388.44V159.81H30.72C30.72 158.73 31.09 157.64 31.85 156.75L96.14 81.2698C97 80.0998 98.39 79.3398 99.95 79.3398Z" fill="#71C285"/>
<path fill-rule="evenodd" clip-rule="evenodd" d="M59.9 167.08L109.1 109.33C109.96 108.16 111.34 107.4 112.91 107.4H287.22C291.39 107.4 295.2 109.13 297.96 111.89C300.72 114.65 302.45 118.47 302.45 122.63V388.44C302.45 392.61 300.72 396.42 297.96 399.18C295.2 401.94 291.38 403.67 287.22 403.67H74C69.83 403.67 66.02 401.94 63.26 399.18C60.5 396.42 58.77 392.6 58.77 388.44V170.14H58.78C58.77 169.05 59.15 167.96 59.9 167.08Z" fill="#62B577"/>
<path fill-rule="evenodd" clip-rule="evenodd" d="M302.45 359.52V388.45C302.45 392.62 300.72 396.43 297.96 399.19C295.2 401.95 291.38 403.68 287.22 403.68H74C69.83 403.68 66.02 401.95 63.26 399.19C60.5 396.43 58.77 392.61 58.77 388.45V359.52H302.45Z" fill="#59A86D"/>
<path fill-rule="evenodd" clip-rule="evenodd" d="M69.32 82.9698L28.9 123.39C27.06 125.23 24.07 125.23 22.23 123.39L1.40002 102.56C-0.439981 100.72 -0.439981 97.7298 1.40002 95.8898L41.82 55.4698C43.66 53.6298 46.65 53.6298 48.49 55.4698L69.32 76.2998C71.16 78.1398 71.16 81.1298 69.32 82.9698ZM205.17 160.01L231.97 186.81L258.77 213.61C265.54 220.38 268.92 229.28 268.92 238.17C268.92 247.07 265.54 255.96 258.77 262.73L231.97 289.53L205.17 316.33C198.4 323.1 189.51 326.48 180.61 326.48C171.71 326.48 162.82 323.1 156.05 316.33L129.25 289.53L102.45 262.73C95.68 255.96 92.3 247.07 92.3 238.17C92.3 229.27 95.68 220.38 102.45 213.61L129.25 186.81L156.05 160.01C162.82 153.24 171.71 149.86 180.61 149.86C189.5 149.86 198.4 153.24 205.17 160.01Z" fill="#F9EAB0"/>
<path fill-rule="evenodd" clip-rule="evenodd" d="M184.25 189.95C192.13 199.23 198.26 207.85 202.88 215.8C208.01 224.61 211.31 232.61 213.13 239.8C218.04 259.2 212.37 272.86 202.59 280.67C196.25 285.73 188.19 288.22 180.19 288.12C172.16 288.03 164.14 285.35 157.92 280.09C148.34 271.99 143.02 258 148.5 238.28C150.45 231.25 153.79 223.47 158.82 214.97C163.39 207.25 169.37 198.89 177.02 189.9C178.7 187.92 181.67 187.67 183.65 189.35C183.87 189.52 184.07 189.73 184.25 189.95Z" fill="#FFC107"/>
<path fill-rule="evenodd" clip-rule="evenodd" d="M302.45 388.45V359.52H290.17V388.45C290.17 392.62 288.44 396.43 285.68 399.19C282.92 401.95 279.1 403.68 274.94 403.68H287.22C291.39 403.68 295.2 401.95 297.96 399.19C300.72 396.43 302.45 392.62 302.45 388.45Z" fill="#4DA162"/>
<path fill-rule="evenodd" clip-rule="evenodd" d="M302.45 359.52V122.63C302.45 118.46 300.72 114.65 297.96 111.89C295.2 109.13 291.38 107.4 287.22 107.4H274.94C279.11 107.4 282.92 109.13 285.68 111.89C288.44 114.65 290.17 118.47 290.17 122.63V359.51H302.45V359.52Z" fill="#59A86D"/>
</g>
<defs>
<clipPath id="clip0_478_2504">
<rect width="331" height="432" fill="white"/>
</clipPath>
</defs>
</svg>
