<svg width="355" height="432" viewBox="0 0 355 432" fill="none" xmlns="http://www.w3.org/2000/svg">
<g clip-path="url(#clip0_478_2488)">
<path fill-rule="evenodd" clip-rule="evenodd" d="M240.59 31.9698C243.07 32.7298 244.47 35.3598 243.7 37.8498L226.44 93.4198C225.68 95.8998 223.05 97.2998 220.56 96.5298C174.47 94.9898 176.59 98.3998 131.98 96.5298C129.5 97.2898 126.87 95.8998 126.1 93.4198L108.84 37.8498C108.08 35.3698 109.47 32.7398 111.95 31.9698C118.56 29.9398 234 29.9398 240.59 31.9698Z" fill="#C4CED3"/>
<path d="M46.0601 198.58C44.7601 200.83 41.8801 201.6 39.6301 200.29L2.34014 178.76C0.0901389 177.46 -0.67986 174.58 0.63014 172.33L46.6601 92.5999C47.9601 90.3499 50.8401 89.5799 53.0901 90.8899L91.2201 112.91C93.4701 114.21 94.2401 117.09 92.9301 119.34C80.2201 141.29 59.5101 175.36 46.0601 198.58ZM314.88 200.3C312.63 201.59 309.76 200.82 308.47 198.57C294.62 174.47 276.54 145.34 261.59 119.33C260.3 117.08 261.07 114.21 263.32 112.92L301.19 91.0499C301.27 90.9999 301.35 90.9499 301.43 90.8999C303.68 89.5999 306.56 90.3599 307.86 92.6099L353.89 172.34H353.88L353.89 172.35C355.18 174.6 354.41 177.47 352.16 178.76L314.88 200.3Z" fill="#525360"/>
<path fill-rule="evenodd" clip-rule="evenodd" d="M240.59 31.9698C243.07 32.7298 244.47 35.3598 243.7 37.8498L240.1 49.4398H112.45L108.85 37.8498C108.09 35.3698 109.48 32.7398 111.96 31.9698C118.56 29.9398 234 29.9398 240.59 31.9698ZM230.9 79.0598L226.44 93.4098C225.68 95.8898 223.05 97.2898 220.56 96.5198C174.47 94.9798 176.59 98.3898 131.98 96.5198C129.5 97.2798 126.87 95.8898 126.1 93.4098L121.64 79.0598H230.9Z" fill="#B0B9BE"/>
<path d="M46.0601 198.58C44.7601 200.83 41.8801 201.6 39.6301 200.29L28.3701 193.79L80.0401 106.45L91.2301 112.91C93.4801 114.21 94.2501 117.09 92.9401 119.34C80.2201 141.29 59.5101 175.36 46.0601 198.58ZM314.88 200.3C312.63 201.59 309.76 200.82 308.47 198.57C294.62 174.47 276.54 145.34 261.59 119.33C260.3 117.08 261.07 114.21 263.32 112.92L274.49 106.47L326.15 193.8L314.88 200.3Z" fill="#4A4B56"/>
<path d="M126.88 387.41C126.88 384.81 128.99 382.69 131.6 382.69C134.2 382.69 220.34 382.69 222.95 382.69C225.55 382.69 227.67 384.8 227.67 387.41V427.02C227.67 429.62 225.56 431.74 222.95 431.74H131.6C129 431.74 126.88 429.63 126.88 427.02V387.41Z" fill="#525360"/>
<path d="M126.88 387.41C126.88 384.81 128.99 382.69 131.6 382.69C134.2 382.69 220.34 382.69 222.95 382.69C225.55 382.69 227.67 384.8 227.67 387.41V400.38H126.88V387.41Z" fill="#4A4B56"/>
<path d="M22.8399 223.65C22.1299 222.26 22.1299 220.55 22.9799 219.11L99.4199 89.8901C100.2 88.3601 101.79 87.3101 103.62 87.3101H250.91V87.3201C252.52 87.3201 254.09 88.1501 254.96 89.6301L331.55 219.1C332.31 220.4 332.45 222.04 331.75 223.5L253.33 389.11C252.64 390.87 250.94 392.11 248.94 392.11H105.58V392.1C103.82 392.1 102.13 391.1 101.32 389.4C74.1699 332.07 50.2199 281.48 22.8399 223.65Z" fill="#A9ADBF"/>
<path d="M171.98 184.09C170.38 182.04 170.75 179.09 172.79 177.49C174.83 175.89 177.79 176.26 179.39 178.3L224.57 236.24C226.17 238.28 225.8 241.24 223.76 242.84C221.72 244.44 218.76 244.07 217.16 242.03L171.98 184.09ZM111.02 180.28C112.56 178.18 115.5 177.73 117.6 179.27C119.7 180.81 120.15 183.75 118.61 185.85L62.1901 262.94C60.6501 265.04 57.7101 265.49 55.6101 263.95C53.5101 262.41 53.0601 259.47 54.6001 257.37L111.02 180.28ZM210.44 318.75C213.03 318.75 215.14 320.85 215.14 323.45C215.14 326.04 213.04 328.15 210.44 328.15H58.3901C55.8001 328.15 53.6901 326.05 53.6901 323.45C53.6901 320.86 55.7901 318.75 58.3901 318.75H210.44Z" fill="#82838E"/>
<path d="M206.13 134.22C204.57 132.13 205 129.18 207.09 127.62C209.18 126.06 212.13 126.49 213.69 128.58L272.67 207.7C274.23 209.79 273.8 212.74 271.71 214.3C269.62 215.86 266.67 215.43 265.11 213.34L206.13 134.22Z" fill="white"/>
<path d="M241.64 41.1802H110.91C105.21 41.1802 100.03 38.8502 96.2699 35.1002C92.5199 31.3502 90.1899 26.1702 90.1899 20.4602C90.1899 14.7602 92.5199 9.58023 96.2699 5.82023C100.02 2.07023 105.2 -0.259766 110.91 -0.259766H241.64C247.34 -0.259766 252.52 2.07023 256.28 5.82023C260.03 9.57023 262.36 14.7502 262.36 20.4602C262.36 26.1602 260.03 31.3402 256.28 35.1002C252.52 38.8502 247.34 41.1802 241.64 41.1802Z" fill="#525360"/>
<path d="M152.9 68.96C150.3 68.96 148.18 66.85 148.18 64.24C148.18 61.64 150.29 59.52 152.9 59.52H199.65C202.25 59.52 204.37 61.63 204.37 64.24C204.37 66.84 202.26 68.96 199.65 68.96H152.9Z" fill="white"/>
<path d="M176.85 247.06C185.45 238.46 197.33 233.14 210.45 233.14C223.57 233.14 235.45 238.46 244.05 247.06C252.65 255.66 257.97 267.54 257.97 280.66C257.97 293.78 252.65 305.66 244.05 314.26C235.45 322.86 223.57 328.18 210.45 328.18C197.33 328.18 185.45 322.86 176.85 314.26C168.25 305.66 162.93 293.78 162.93 280.66C162.93 267.53 168.25 255.65 176.85 247.06Z" fill="#5B5D6E"/>
<path d="M155.53 208.278C174.749 202.46 185.613 182.162 179.794 162.942C173.976 143.723 153.679 132.859 134.459 138.678C115.239 144.496 104.376 164.793 110.194 184.013C116.013 203.233 136.31 214.097 155.53 208.278Z" fill="#5B5D6E"/>
<path d="M32.6803 266.09C39.2603 259.51 48.3503 255.44 58.3903 255.44C78.4703 255.44 94.7503 271.72 94.7503 291.8C94.7503 301.84 90.6803 310.93 84.1003 317.51C77.5203 324.09 68.4303 328.16 58.3903 328.16C38.3103 328.16 22.0303 311.88 22.0303 291.8C22.0303 281.76 26.1003 272.67 32.6803 266.09Z" fill="#5B5D6E"/>
<path fill-rule="evenodd" clip-rule="evenodd" d="M133.26 161.76C136.26 158.76 140.41 156.9 144.99 156.9C149.57 156.9 153.72 158.76 156.72 161.76C159.72 164.76 161.58 168.91 161.58 173.49C161.58 178.07 159.72 182.22 156.72 185.22C153.72 188.22 149.57 190.08 144.99 190.08C140.41 190.08 136.26 188.22 133.26 185.22C130.26 182.22 128.4 178.07 128.4 173.49C128.4 168.9 130.26 164.76 133.26 161.76ZM46.6701 280.07C49.6701 277.07 53.8201 275.21 58.4001 275.21C62.9801 275.21 67.1301 277.07 70.1301 280.07C73.1301 283.07 74.9901 287.22 74.9901 291.8C74.9901 296.38 73.1301 300.53 70.1301 303.53C67.1301 306.53 62.9801 308.39 58.4001 308.39C53.8201 308.39 49.6701 306.53 46.6701 303.53C43.6701 300.53 41.8101 296.38 41.8101 291.8C41.8101 287.22 43.6701 283.08 46.6701 280.07ZM195.76 265.97C199.52 262.21 204.71 259.89 210.44 259.89C216.17 259.89 221.37 262.21 225.12 265.97C228.88 269.73 231.2 274.92 231.2 280.65C231.2 286.38 228.88 291.57 225.12 295.33C221.36 299.09 216.17 301.41 210.44 301.41C204.71 301.41 199.52 299.09 195.76 295.33C192 291.57 189.68 286.38 189.68 280.65C189.68 274.92 192 269.73 195.76 265.97Z" fill="#C4CED3"/>
</g>
<defs>
<clipPath id="clip0_478_2488">
<rect width="355" height="432" fill="white"/>
</clipPath>
</defs>
</svg>
