<svg width="492" height="492" viewBox="0 0 492 492" fill="none" xmlns="http://www.w3.org/2000/svg">
<path fill-rule="evenodd" clip-rule="evenodd" d="M346.98 427.69C347.22 427.91 347.45 428.16 347.65 428.43C349.18 430.54 348.71 433.48 346.6 435.01C315.66 457.48 275.9 466.09 238.23 460.86C219.91 458.31 202.04 452.48 185.9 443.36C169.7 434.21 155.26 421.77 143.85 406.05C122.99 377.32 112.2 337.69 119.21 287.22C119.5 285.11 121.16 283.51 123.17 283.21L190.79 126.74C188.9 125.25 188.43 122.53 189.78 120.48C199.05 106.39 209.23 91.9796 220.38 77.2596C231.27 62.8696 243.17 48.0496 256.13 32.7996C257.81 30.8196 260.78 30.5696 262.76 32.2496C262.98 32.4396 263.18 32.6396 263.36 32.8596C299.53 75.4396 327.55 114.84 348.64 151.06C371.69 190.65 386.48 226.47 394.59 258.5C395.92 263.76 397.07 268.97 398.05 274.13C399.01 279.18 399.8 284.17 400.45 289.12C400.79 291.69 398.97 294.05 396.4 294.39L396.35 294.4L346.98 427.69Z" fill="#FFC107"/>
<path fill-rule="evenodd" clip-rule="evenodd" d="M346.98 427.69C347.22 427.91 347.45 428.16 347.65 428.43C349.18 430.54 348.71 433.48 346.6 435.01C343.01 437.61 339.31 440.03 335.5 442.26C333.25 441.54 331.03 440.72 328.85 439.82C326.46 438.83 324.11 437.73 321.81 436.53L314.61 443.73C309.55 448.79 301.33 448.79 296.27 443.73L276.92 424.38C271.86 419.32 271.86 411.1 276.92 406.04L284.12 398.84C282.92 396.54 281.82 394.2 280.83 391.8C279.84 389.41 278.96 386.98 278.18 384.52H268.01C260.85 384.52 255.04 378.71 255.04 371.55V344.2C255.04 337.04 260.85 331.23 268.01 331.23H278.18C278.95 328.77 279.84 326.34 280.82 323.95C281.81 321.56 282.91 319.21 284.11 316.91L276.91 309.71C271.85 304.65 271.85 296.43 276.91 291.37L296.26 272.02C301.32 266.96 309.54 266.96 314.6 272.02L321.8 279.22C324.1 278.02 326.44 276.92 328.84 275.93C331.23 274.94 333.66 274.06 336.12 273.28V263.11C336.12 255.95 341.93 250.14 349.09 250.14H376.45C383.61 250.14 389.42 255.95 389.42 263.11V273.28C391.88 274.05 394.31 274.94 396.7 275.92C397.31 276.17 397.92 276.43 398.52 276.7C399.27 280.87 399.9 285 400.44 289.1C400.78 291.67 398.96 294.03 396.39 294.37L396.34 294.38L346.98 427.69ZM117.74 300.84C118.09 296.39 118.58 291.86 119.22 287.23C119.51 285.12 121.17 283.52 123.18 283.22L190.8 126.75C188.91 125.26 188.44 122.54 189.79 120.49C192.36 116.59 194.99 112.66 197.7 108.72L215.59 126.61C220.65 131.67 220.65 139.89 215.59 144.95L208.39 152.15C209.59 154.45 210.69 156.79 211.68 159.19C212.67 161.58 213.55 164.01 214.33 166.47H224.5C231.66 166.47 237.47 172.28 237.47 179.44V206.8C237.47 213.96 231.66 219.77 224.5 219.77H214.33C213.56 222.23 212.67 224.66 211.68 227.05C210.69 229.44 209.59 231.79 208.39 234.09L215.59 241.29C220.65 246.35 220.65 254.57 215.59 259.63L196.24 278.98C191.18 284.04 182.96 284.04 177.9 278.98L170.7 271.78C168.4 272.98 166.06 274.08 163.66 275.07C161.27 276.06 158.84 276.94 156.38 277.72V287.89C156.38 295.05 150.57 300.86 143.41 300.86H117.74V300.84Z" fill="#FFAE06"/>
<path fill-rule="evenodd" clip-rule="evenodd" d="M393.55 432.2C389.6 433.84 385.46 435.17 381.18 436.17V452.64C381.18 455.24 379.07 457.36 376.46 457.36H349.1C346.5 457.36 344.38 455.25 344.38 452.64V436.17C340.1 435.17 335.96 433.83 332.01 432.2C327.98 430.53 324.11 428.53 320.43 426.25L308.78 437.9C306.94 439.74 303.95 439.74 302.11 437.9L282.76 418.55C280.92 416.71 280.92 413.72 282.76 411.88L294.41 400.23C292.12 396.55 290.13 392.68 288.46 388.65C286.82 384.7 285.49 380.56 284.48 376.27H268.01C265.41 376.27 263.29 374.16 263.29 371.55V344.2C263.29 341.6 265.4 339.48 268.01 339.48H284.48C285.48 335.2 286.82 331.06 288.45 327.11C290.12 323.08 292.12 319.21 294.41 315.53L282.76 303.88C280.92 302.04 280.92 299.05 282.76 297.21L302.11 277.86C303.95 276.02 306.94 276.02 308.78 277.86L320.43 289.51C324.11 287.22 327.98 285.23 332.01 283.56C335.96 281.92 340.1 280.58 344.39 279.58V263.11C344.39 260.51 346.5 258.39 349.11 258.39H376.47C379.07 258.39 381.19 260.5 381.19 263.11V279.58C385.47 280.58 389.61 281.92 393.56 283.55C397.59 285.22 401.46 287.22 405.14 289.5L416.79 277.85C418.63 276.01 421.62 276.01 423.46 277.85L442.81 297.2C444.65 299.04 444.65 302.03 442.81 303.87L431.16 315.52C433.45 319.2 435.44 323.07 437.11 327.1C438.75 331.05 440.08 335.19 441.09 339.48H457.56C460.16 339.48 462.28 341.59 462.28 344.2V371.56C462.28 374.16 460.17 376.28 457.56 376.28H441.09C440.09 380.56 438.75 384.7 437.12 388.65C435.45 392.68 433.45 396.55 431.16 400.23L442.81 411.88C444.65 413.72 444.65 416.71 442.81 418.55L423.46 437.9C421.62 439.74 418.63 439.74 416.79 437.9L405.14 426.25C401.45 428.54 397.58 430.53 393.55 432.2Z" fill="#4D4D4D"/>
<path d="M402.59 397.68C392.4 407.87 378.33 414.17 362.78 414.17C347.24 414.17 333.16 407.87 322.98 397.68C312.79 387.49 306.49 373.42 306.49 357.88C306.49 342.34 312.79 328.26 322.98 318.07C333.17 307.88 347.24 301.58 362.78 301.58C378.32 301.58 392.4 307.88 402.59 318.07C412.78 328.26 419.08 342.33 419.08 357.88C419.07 373.42 412.77 387.5 402.59 397.68Z" fill="white"/>
<path fill-rule="evenodd" clip-rule="evenodd" d="M160.51 267.42C156.56 269.06 152.42 270.39 148.14 271.39V287.86C148.14 290.46 146.03 292.58 143.42 292.58H116.06C113.46 292.58 111.34 290.47 111.34 287.86V271.4C107.06 270.4 102.92 269.06 98.9698 267.43C94.9398 265.76 91.0698 263.76 87.3898 261.47L75.7398 273.12C73.8998 274.96 70.9098 274.96 69.0698 273.12L49.7198 253.77C47.8798 251.93 47.8798 248.94 49.7198 247.1L61.3698 235.45C59.0798 231.77 57.0898 227.9 55.4198 223.87C53.7798 219.92 52.4398 215.78 51.4398 211.49H34.9798C32.3798 211.49 30.2598 209.38 30.2598 206.77V179.41C30.2598 176.81 32.3698 174.69 34.9798 174.69H51.4498C52.4498 170.41 53.7898 166.27 55.4198 162.32C57.0898 158.29 59.0898 154.42 61.3798 150.73L49.7198 139.1C47.8798 137.26 47.8798 134.27 49.7198 132.43L69.0698 113.08C70.9098 111.24 73.8998 111.24 75.7398 113.08L87.3898 124.73C91.0698 122.44 94.9398 120.45 98.9698 118.78C102.92 117.14 107.06 115.81 111.35 114.8V98.3401C111.35 95.7401 113.46 93.6201 116.07 93.6201H143.43C146.03 93.6201 148.15 95.7301 148.15 98.3401V114.81C152.43 115.81 156.57 117.15 160.52 118.78C164.55 120.45 168.42 122.45 172.11 124.74L183.76 113.09C185.6 111.25 188.59 111.25 190.43 113.09L209.78 132.44C211.62 134.28 211.62 137.27 209.78 139.11L198.13 150.76C200.42 154.44 202.41 158.31 204.08 162.34C205.72 166.29 207.05 170.43 208.06 174.72H224.53C227.13 174.72 229.25 176.83 229.25 179.44V206.8C229.25 209.4 227.14 211.52 224.53 211.52H208.06C207.06 215.8 205.72 219.94 204.08 223.89C202.41 227.92 200.41 231.79 198.13 235.47L209.78 247.12C211.62 248.96 211.62 251.95 209.78 253.79L190.43 273.14C188.59 274.98 185.6 274.98 183.76 273.14L172.11 261.49C168.41 263.76 164.54 265.76 160.51 267.42Z" fill="#4D4D4D"/>
<path d="M169.54 232.91C159.35 243.1 145.28 249.4 129.74 249.4C114.2 249.4 100.12 243.1 89.9299 232.91C79.7399 222.72 73.4399 208.65 73.4399 193.1C73.4399 177.56 79.7399 163.48 89.9299 153.29C100.12 143.1 114.19 136.8 129.74 136.8C145.29 136.8 159.36 143.1 169.54 153.29C179.73 163.48 186.03 177.55 186.03 193.1C186.03 208.65 179.73 222.72 169.54 232.91Z" fill="white"/>
<path fill-rule="evenodd" clip-rule="evenodd" d="M174.72 318.66C175.04 316.08 177.39 314.24 179.97 314.55C182.55 314.87 184.39 317.22 184.08 319.8C184.06 319.97 176.31 377.52 237.17 403.76C239.56 404.79 240.67 407.56 239.64 409.95C238.61 412.34 235.84 413.45 233.45 412.42C166.01 383.35 174.69 318.84 174.72 318.66ZM260.09 124.43C257.82 123.17 257 120.31 258.27 118.04C259.53 115.77 262.39 114.95 264.66 116.22C264.82 116.31 320.71 146.41 318.27 229.92C318.2 232.51 316.04 234.56 313.44 234.49C310.85 234.42 308.8 232.26 308.87 229.66C311.14 151.91 260.23 124.51 260.09 124.43Z" fill="#FFAE06"/>
</svg>
