<svg width="432" height="361" viewBox="0 0 432 361" fill="none" xmlns="http://www.w3.org/2000/svg">
<g clip-path="url(#clip0_478_2554)">
<path fill-rule="evenodd" clip-rule="evenodd" d="M366.1 184.93C366.1 187.53 363.38 189.65 360.03 189.65H72.4899C69.1399 189.65 66.4199 187.54 66.4199 184.93C66.4199 182.33 66.4199 147.91 66.4199 145.31C66.4199 142.71 69.1399 140.59 72.4899 140.59H360.03C363.38 140.59 366.1 142.7 366.1 145.31C366.1 147.92 366.1 182.33 366.1 184.93Z" fill="#E6E6E6"/>
<path fill-rule="evenodd" clip-rule="evenodd" d="M365.98 185.86C365.43 188.02 362.97 189.65 360.03 189.65H302.08L331.47 165.12L302.08 140.59H360.03C362.98 140.59 365.43 142.22 365.98 144.38C364.69 145.35 363.24 146.06 361.71 146.49L357.08 155.56C358 158.69 357.74 162.12 356.23 165.11C357.74 168.1 358 171.54 357.07 174.67L361.83 183.77C363.32 184.22 364.73 184.92 365.98 185.86ZM130.44 189.65H72.49C69.54 189.65 67.09 188.02 66.54 185.86C67.68 185.01 68.94 184.35 70.27 183.92L75.49 174.86C74.51 171.69 74.75 168.18 76.29 165.13C74.76 162.1 74.51 158.61 75.48 155.44L71.09 146.58C69.46 146.16 67.91 145.43 66.54 144.4C67.09 142.24 69.55 140.61 72.49 140.61H130.44L101.05 165.14L130.44 189.65Z" fill="#D9D9D9"/>
<path fill-rule="evenodd" clip-rule="evenodd" d="M142.45 189.65H132.69L145.84 140.6H155.59L142.45 189.65Z" fill="#CCCCCC"/>
<path fill-rule="evenodd" clip-rule="evenodd" d="M178.51 189.65H168.75L181.9 140.6H191.65L178.51 189.65Z" fill="#CCCCCC"/>
<path fill-rule="evenodd" clip-rule="evenodd" d="M214.56 189.65H204.81L217.96 140.6H227.71L214.56 189.65Z" fill="#CCCCCC"/>
<path fill-rule="evenodd" clip-rule="evenodd" d="M250.62 189.65H240.87L254.01 140.6H263.77L250.62 189.65Z" fill="#CCCCCC"/>
<path fill-rule="evenodd" clip-rule="evenodd" d="M286.68 189.65H276.93L290.07 140.6H299.83L286.68 189.65Z" fill="#CCCCCC"/>
<path fill-rule="evenodd" clip-rule="evenodd" d="M332.23 175.23L341.65 167.37C343.64 165.7 346.61 165.97 348.28 167.96C349.94 169.95 349.69 172.91 347.7 174.58L356.69 191.76C358.49 191.15 360.55 191.68 361.83 193.23C363.48 195.23 363.19 198.2 361.19 199.84L351.65 207.66C350.13 206.44 348.68 205.13 347.28 203.74C339.44 195.89 334.24 185.96 332.23 175.23Z" fill="#C24441"/>
<path fill-rule="evenodd" clip-rule="evenodd" d="M287.09 260.58C285.09 262.23 282.12 261.94 280.48 259.94C279.15 258.32 279.08 256.07 280.17 254.39L269.43 239.01C267.87 239.23 266.23 238.67 265.14 237.37C263.47 235.38 263.74 232.41 265.73 230.74L341.66 167.37C343.65 165.7 346.62 165.97 348.29 167.96C349.95 169.95 349.7 172.91 347.71 174.58L356.7 191.76C358.5 191.15 360.56 191.68 361.84 193.23C363.49 195.23 363.2 198.2 361.2 199.84L287.09 260.58ZM75.3398 191.63L85.0498 174.78L84.8198 174.59C82.8298 172.92 82.5598 169.95 84.2298 167.96C85.8998 165.97 88.8698 165.7 90.8598 167.37L166.79 230.74C168.78 232.41 169.05 235.38 167.38 237.37C166.01 239 163.78 239.47 161.92 238.68L152.46 254.83C153.35 256.46 153.21 258.54 151.96 260.06C150.31 262.06 147.35 262.35 145.35 260.7L71.3198 199.85C69.3198 198.2 69.0298 195.24 70.6798 193.24C71.8498 191.81 73.6698 191.25 75.3398 191.63Z" fill="#D74B48"/>
<path fill-rule="evenodd" clip-rule="evenodd" d="M332.23 175.23L341.65 167.37C343.64 165.7 346.61 165.97 348.28 167.96C349.94 169.95 349.69 172.91 347.7 174.58L356.69 191.76C358.49 191.15 360.55 191.68 361.83 193.23C363.48 195.23 363.19 198.2 361.19 199.84L351.65 207.66C350.13 206.44 348.68 205.13 347.28 203.74C339.44 195.89 334.24 185.96 332.23 175.23Z" fill="#C24441"/>
<path fill-rule="evenodd" clip-rule="evenodd" d="M90.87 162.88C88.88 164.55 85.91 164.28 84.24 162.29C82.58 160.3 82.83 157.34 84.81 155.67L76.22 138.33C74.34 139.17 72.06 138.69 70.69 137.02C69.04 135.02 69.33 132.05 71.33 130.41L158.18 59.2304C160.18 57.5804 163.15 57.8704 164.79 59.8704C166.44 61.8704 166.15 64.8404 164.15 66.4804L163.07 67.3604L165.2 89.1604C166.91 88.7104 168.8 89.2504 170.01 90.6904C171.68 92.6804 171.41 95.6504 169.42 97.3204L90.87 162.88ZM356.56 138.43L347.75 155.7C349.69 157.38 349.94 160.31 348.28 162.28C346.61 164.27 343.64 164.54 341.65 162.87L263.1 97.3104C261.11 95.6404 260.84 92.6704 262.51 90.6804C263.39 89.6304 264.63 89.0604 265.9 89.0004L270.68 68.1604L268.37 66.2604C266.37 64.6104 266.08 61.6504 267.73 59.6504C269.38 57.6504 272.34 57.3604 274.34 59.0104L361.19 130.4C363.19 132.05 363.48 135.01 361.83 137.01C360.53 138.61 358.39 139.12 356.56 138.43Z" fill="#D74B48"/>
<path fill-rule="evenodd" clip-rule="evenodd" d="M287.09 260.58C285.09 262.23 282.12 261.94 280.48 259.94C279.15 258.32 279.08 256.07 280.17 254.39L269.43 239.01C267.87 239.23 266.23 238.67 265.14 237.37C263.47 235.38 263.74 232.41 265.73 230.74L276.08 222.1L296.81 252.62L287.09 260.58ZM135.64 252.71L156.44 222.09L166.79 230.73C168.78 232.4 169.05 235.37 167.38 237.36C166.01 238.99 163.78 239.46 161.92 238.67L152.46 254.82C153.35 256.45 153.21 258.53 151.96 260.05C150.31 262.05 147.35 262.34 145.35 260.69L135.64 252.71ZM148.19 67.4001L158.18 59.2201C160.18 57.5701 163.15 57.8601 164.79 59.8601C166.44 61.8601 166.15 64.8301 164.15 66.4701L163.07 67.3501L165.2 89.1501C166.91 88.7001 168.8 89.2401 170.01 90.6801C171.68 92.6701 171.41 95.6401 169.42 97.3101L159.38 105.69C152.2 97.7801 148.19 87.5201 148.19 76.7801V67.4001ZM284.33 67.2201V76.7901C284.33 87.5301 280.32 97.7901 273.14 105.7L263.1 97.3201C261.11 95.6501 260.84 92.6801 262.51 90.6901C263.39 89.6401 264.63 89.0701 265.9 89.0101L270.68 68.1701L268.37 66.2701C266.37 64.6201 266.08 61.6601 267.73 59.6601C269.38 57.6601 272.34 57.3701 274.34 59.0201L284.33 67.2201ZM100.29 175.23C98.28 185.96 93.08 195.89 85.23 203.74C83.83 205.14 82.37 206.45 80.85 207.67L71.33 199.84C69.33 198.19 69.04 195.23 70.69 193.23C71.86 191.81 73.68 191.25 75.35 191.63L85.06 174.78L84.83 174.59C82.84 172.92 82.57 169.95 84.24 167.96C85.91 165.97 88.88 165.7 90.87 167.37L100.29 175.23ZM90.87 162.88C88.88 164.55 85.91 164.28 84.24 162.29C82.58 160.3 82.83 157.34 84.81 155.67L76.22 138.33C74.34 139.17 72.06 138.69 70.69 137.02C69.04 135.02 69.33 132.05 71.33 130.41L80.87 122.59C82.39 123.81 83.84 125.12 85.24 126.51C93.09 134.36 98.29 144.29 100.3 155.02L90.87 162.88ZM332.23 155.01C334.24 144.28 339.44 134.36 347.29 126.5C348.69 125.1 350.15 123.79 351.67 122.57L361.19 130.4C363.19 132.05 363.48 135.01 361.83 137.01C360.52 138.6 358.38 139.11 356.55 138.43L347.74 155.7C349.68 157.38 349.93 160.31 348.27 162.28C346.6 164.27 343.63 164.54 341.64 162.87L332.23 155.01Z" fill="#C24441"/>
<path fill-rule="evenodd" clip-rule="evenodd" d="M46.6198 118.77C59.4198 118.77 71.0098 123.96 79.3998 132.35C87.7898 140.74 92.9798 152.33 92.9798 165.13C92.9798 177.93 87.7898 189.52 79.3998 197.91C71.0098 206.3 59.4198 211.49 46.6198 211.49C33.8198 211.49 22.2298 206.3 13.8398 197.91C5.44977 189.52 0.259766 177.93 0.259766 165.13C0.259766 152.33 5.44977 140.74 13.8398 132.35C22.2298 123.96 33.8198 118.77 46.6198 118.77ZM385.9 118.77C398.7 118.77 410.29 123.96 418.68 132.35C427.07 140.74 432.26 152.33 432.26 165.13C432.26 177.93 427.07 189.52 418.68 197.91C410.29 206.3 398.7 211.49 385.9 211.49C373.1 211.49 361.51 206.3 353.12 197.91C344.73 189.52 339.54 177.93 339.54 165.13C339.54 152.33 344.73 140.74 353.12 132.35C361.51 123.96 373.1 118.77 385.9 118.77Z" fill="#E6E6E6"/>
<path fill-rule="evenodd" clip-rule="evenodd" d="M161.16 0.240234H271.36C273.96 0.240234 276.08 2.35024 276.08 4.96024V76.7902C276.08 86.3702 272.16 95.0802 265.85 101.39C259.54 107.7 250.83 111.62 241.25 111.62H191.28C181.7 111.62 172.99 107.7 166.68 101.39C160.37 95.0802 156.45 86.3702 156.45 76.7902V4.96024C156.44 2.36024 158.56 0.240234 161.16 0.240234Z" fill="#EF5350"/>
<path fill-rule="evenodd" clip-rule="evenodd" d="M238.42 51.75C243.19 51.75 247.52 53.69 250.65 56.82C253.78 59.95 255.72 64.27 255.72 69.05C255.72 73.82 253.78 78.15 250.65 81.28C247.52 84.41 243.2 86.35 238.42 86.35C233.65 86.35 229.32 84.41 226.19 81.28C223.06 78.15 221.12 73.83 221.12 69.05C221.12 64.28 223.06 59.95 226.19 56.82C229.32 53.69 233.64 51.75 238.42 51.75ZM194.1 51.75C198.87 51.75 203.2 53.69 206.33 56.82C209.46 59.95 211.4 64.27 211.4 69.05C211.4 73.82 209.46 78.15 206.33 81.28C203.2 84.41 198.88 86.35 194.1 86.35C189.32 86.35 185 84.41 181.87 81.28C178.74 78.15 176.8 73.83 176.8 69.05C176.8 64.28 178.74 59.95 181.87 56.82C185 53.69 189.33 51.75 194.1 51.75Z" fill="white"/>
<path fill-rule="evenodd" clip-rule="evenodd" d="M169.88 220.64H262.65C264.43 220.64 265.98 221.63 266.78 223.09L332.45 319.75C333 320.56 333.26 321.48 333.26 322.38H333.28V356.52C333.28 359.12 331.17 361.24 328.56 361.24H266.4C263.8 361.24 261.68 359.13 261.68 356.52V327.1H170.83V356.52C170.83 359.12 168.72 361.24 166.11 361.24H103.95C101.35 361.24 99.23 359.13 99.23 356.52V322.38C99.23 321.24 99.63 320.19 100.31 319.38L165.97 222.72C166.88 221.38 168.35 220.66 169.86 220.66V220.64H169.88Z" fill="#EF5350"/>
<path fill-rule="evenodd" clip-rule="evenodd" d="M242.46 243.4C247.32 243.4 251.72 245.37 254.9 248.55C258.08 251.73 260.05 256.13 260.05 260.99C260.05 265.85 258.08 270.25 254.9 273.43C251.72 276.61 247.32 278.58 242.46 278.58C237.6 278.58 233.2 276.61 230.02 273.43C226.84 270.25 224.87 265.85 224.87 260.99C224.87 256.13 226.84 251.73 230.02 248.55C233.21 245.37 237.6 243.4 242.46 243.4ZM190.06 243.4C194.92 243.4 199.32 245.37 202.5 248.55C205.68 251.73 207.65 256.13 207.65 260.99C207.65 265.85 205.68 270.25 202.5 273.43C199.32 276.61 194.92 278.58 190.06 278.58C185.2 278.58 180.8 276.61 177.62 273.43C174.44 270.25 172.47 265.85 172.47 260.99C172.47 256.13 174.44 251.73 177.62 248.55C180.8 245.37 185.2 243.4 190.06 243.4Z" fill="white"/>
<path fill-rule="evenodd" clip-rule="evenodd" d="M385.9 145.12C391.42 145.12 396.42 147.36 400.05 150.98C403.67 154.6 405.91 159.6 405.91 165.12C405.91 170.64 403.67 175.64 400.05 179.26C396.43 182.88 391.43 185.12 385.9 185.12C380.38 185.12 375.38 182.88 371.76 179.26C368.14 175.64 365.9 170.64 365.9 165.11C365.9 159.59 368.14 154.59 371.76 150.97C375.38 147.36 380.38 145.12 385.9 145.12ZM46.6199 145.12C52.1399 145.12 57.1399 147.36 60.7599 150.98C64.3799 154.6 66.6199 159.6 66.6199 165.12C66.6199 170.64 64.3799 175.64 60.7599 179.27C57.1399 182.89 52.1399 185.13 46.6199 185.13C41.0999 185.13 36.0899 182.89 32.4699 179.27C28.8499 175.65 26.6099 170.65 26.6099 165.13C26.6099 159.61 28.8499 154.61 32.4699 150.99C36.0899 147.36 41.0899 145.12 46.6199 145.12Z" fill="#EF5350"/>
</g>
<defs>
<clipPath id="clip0_478_2554">
<rect width="432" height="361" fill="white"/>
</clipPath>
</defs>
</svg>
