<svg width="2000" height="1126" viewBox="0 0 2000 1126" fill="none" xmlns="http://www.w3.org/2000/svg">
<path d="M246.98 168.02V904.33H1782.07V431.74H1649.63V631.35H1615.54V518.37H1447.13V697.29H1424.84V47.3799H1278.47V392.61H1203.42V536.04H1180.69V445.84H1047.62V714.95H1008.72V496.21H887.021V330H804.281V235.39H708.56V655.13H676.341V193.6H518.67V444.35H496.87V239.71H336.96V168.02H246.98Z" fill="#EBEBEB"/>
<path d="M1743.43 495.01H1765.84V456.85H1743.43V495.01Z" fill="white"/>
<path d="M1704.59 495.01H1727V456.85H1704.59V495.01Z" fill="white"/>
<path d="M1665.75 495.01H1688.16V456.85H1665.75V495.01Z" fill="white"/>
<path d="M1743.43 552.42H1765.84V514.26H1743.43V552.42Z" fill="white"/>
<path d="M1704.59 552.42H1727V514.26H1704.59V552.42Z" fill="white"/>
<path d="M1665.75 552.42H1688.16V514.26H1665.75V552.42Z" fill="white"/>
<path d="M1743.43 609.85H1765.84V571.69H1743.43V609.85Z" fill="white"/>
<path d="M1704.59 609.85H1727V571.69H1704.59V609.85Z" fill="white"/>
<path d="M1665.75 609.85H1688.16V571.69H1665.75V609.85Z" fill="white"/>
<path d="M1743.43 667.26H1765.84V629.1H1743.43V667.26Z" fill="white"/>
<path d="M1704.59 667.26H1727V629.1H1704.59V667.26Z" fill="white"/>
<path d="M1665.75 667.26H1688.16V629.1H1665.75V667.26Z" fill="white"/>
<path d="M967.609 555.29H990.02V523.46H967.609V555.29Z" fill="white"/>
<path d="M928.77 555.29H951.18V523.46H928.77V555.29Z" fill="white"/>
<path d="M889.93 555.29H912.34V523.46H889.93V555.29Z" fill="white"/>
<path d="M967.609 603.19H990.02V571.36H967.609V603.19Z" fill="white"/>
<path d="M928.77 603.19H951.18V571.36H928.77V603.19Z" fill="white"/>
<path d="M889.93 603.19H912.34V571.36H889.93V603.19Z" fill="white"/>
<path d="M967.609 651.09H990.02V619.26H967.609V651.09Z" fill="white"/>
<path d="M928.77 651.09H951.18V619.26H928.77V651.09Z" fill="white"/>
<path d="M889.93 651.09H912.34V619.26H889.93V651.09Z" fill="white"/>
<path d="M967.609 698.99H990.02V667.15H967.609V698.99Z" fill="white"/>
<path d="M928.77 698.99H951.18V667.15H928.77V698.99Z" fill="white"/>
<path d="M889.93 698.99H912.34V667.15H889.93V698.99Z" fill="white"/>
<path d="M967.609 748.08H990.02V716.24H967.609V748.08Z" fill="white"/>
<path d="M928.77 748.08H951.18V716.24H928.77V748.08Z" fill="white"/>
<path d="M889.93 748.08H912.34V716.24H889.93V748.08Z" fill="white"/>
<path d="M967.609 797.17H990.02V765.33H967.609V797.17Z" fill="white"/>
<path d="M928.77 797.17H951.18V765.33H928.77V797.17Z" fill="white"/>
<path d="M889.93 797.17H912.34V765.33H889.93V797.17Z" fill="white"/>
<path d="M967.609 846.26H990.02V814.43H967.609V846.26Z" fill="white"/>
<path d="M928.77 846.26H951.18V814.43H928.77V846.26Z" fill="white"/>
<path d="M889.93 846.26H912.34V814.43H889.93V846.26Z" fill="white"/>
<path d="M967.609 895.34H990.02V863.5H967.609V895.34Z" fill="white"/>
<path d="M928.77 895.34H951.18V863.5H928.77V895.34Z" fill="white"/>
<path d="M889.93 895.34H912.34V863.5H889.93V895.34Z" fill="white"/>
<path d="M1467.41 566.69H1596.41V542.82H1467.41V566.69Z" fill="white"/>
<path d="M1467.41 613H1596.41V589.13H1467.41V613Z" fill="white"/>
<path d="M1467.41 659.3H1596.41V635.43H1467.41V659.3Z" fill="white"/>
<path d="M1467.41 705.61H1596.41V681.74H1467.41V705.61Z" fill="white"/>
<path d="M1467.41 751.92H1596.41V728.05H1467.41V751.92Z" fill="white"/>
<path d="M1467.41 798.23H1596.41V774.36H1467.41V798.23Z" fill="white"/>
<path d="M1467.41 844.53H1596.41V820.66H1467.41V844.53Z" fill="white"/>
<path d="M1467.41 890.84H1596.41V866.97H1467.41V890.84Z" fill="white"/>
<path d="M538.68 239.75L657.28 239.75V215.88H538.68V239.75Z" fill="white"/>
<path d="M538.68 286.07H657.28V262.2H538.68V286.07Z" fill="white"/>
<path d="M538.68 332.37H657.28V308.51H538.68V332.37Z" fill="white"/>
<path d="M538.68 378.68H657.28V354.82H538.68V378.68Z" fill="white"/>
<path d="M657.29 401.12H538.69V424.99H657.29V401.12Z" fill="white"/>
<path d="M538.68 471.3H657.28V447.43H538.68V471.3Z" fill="white"/>
<path d="M538.68 517.6H657.28V493.73H538.68V517.6Z" fill="white"/>
<path d="M538.68 563.91H657.28V540.04H538.68V563.91Z" fill="white"/>
<path d="M538.68 607.91H657.28V584.04H538.68V607.91Z" fill="white"/>
<path d="M538.68 651.91H657.28V628.04H538.68V651.91Z" fill="white"/>
<path d="M538.68 695.91H657.28V672.04H538.68V695.91Z" fill="white"/>
<path d="M538.68 739.91H657.28V716.05H538.68V739.91Z" fill="white"/>
<path d="M346.92 295.69H472.2V271.83H346.92V295.69Z" fill="white"/>
<path d="M346.92 341.99H472.2V318.12H346.92V341.99Z" fill="white"/>
<path d="M346.92 388.3H472.2V364.43H346.92V388.3Z" fill="white"/>
<path d="M346.92 434.61H472.2V410.74H346.92V434.61Z" fill="white"/>
<path d="M346.92 480.92H472.2V457.05H346.92V480.92Z" fill="white"/>
<path d="M346.92 527.22H472.2V503.36H346.92V527.22Z" fill="white"/>
<path d="M346.92 573.53H472.2V549.67H346.92V573.53Z" fill="white"/>
<path d="M346.92 619.84H472.2V595.97H346.92V619.84Z" fill="white"/>
<path d="M346.92 661.29H472.2V637.42H346.92V661.29Z" fill="white"/>
<path d="M346.92 702.73H472.2V678.86H346.92V702.73Z" fill="white"/>
<path d="M346.92 744.18H472.2V720.31H346.92V744.18Z" fill="white"/>
<path d="M1101.93 490.51H1141.77V467.46H1101.93V490.51Z" fill="white"/>
<path d="M1101.93 535.23H1141.77V512.181H1101.93V535.23Z" fill="white"/>
<path d="M1101.93 579.95H1141.77V556.9H1101.93V579.95Z" fill="white"/>
<path d="M1101.93 624.67H1141.77V601.62H1101.93V624.67Z" fill="white"/>
<path d="M1101.93 669.38H1141.77V646.33H1101.93V669.38Z" fill="white"/>
<path d="M1101.93 714.1H1141.77V691.05H1101.93V714.1Z" fill="white"/>
<path d="M1101.93 758.82H1141.77V735.77H1101.93V758.82Z" fill="white"/>
<path d="M1101.93 803.54H1141.77V780.49H1101.93V803.54Z" fill="white"/>
<path d="M1047.72 490.51H1087.56V467.46H1047.72V490.51Z" fill="white"/>
<path d="M1047.72 535.23H1087.56V512.181H1047.72V535.23Z" fill="white"/>
<path d="M1047.72 579.95H1087.56V556.9H1047.72V579.95Z" fill="white"/>
<path d="M1047.72 624.67H1087.56V601.62H1047.72V624.67Z" fill="white"/>
<path d="M1047.72 669.38H1087.56V646.33H1047.72V669.38Z" fill="white"/>
<path d="M1047.72 714.1H1087.56V691.05H1047.72V714.1Z" fill="white"/>
<path d="M1047.72 758.82H1087.56V735.77H1047.72V758.82Z" fill="white"/>
<path d="M1047.72 803.54H1087.56V780.49H1047.72V803.54Z" fill="white"/>
<path d="M1361.13 104.95H1402.64V68.6002H1361.13V104.95Z" fill="white"/>
<path d="M1299.26 104.95H1340.76V68.6002H1299.26V104.95Z" fill="white"/>
<path d="M1361.13 158.35H1402.64V122H1361.13V158.35Z" fill="white"/>
<path d="M1299.26 158.35H1340.76V122H1299.26V158.35Z" fill="white"/>
<path d="M1361.13 211.74H1402.64V175.4H1361.13V211.74Z" fill="white"/>
<path d="M1299.26 211.74H1340.76V175.4H1299.26V211.74Z" fill="white"/>
<path d="M1361.13 265.13H1402.64V228.79H1361.13V265.13Z" fill="white"/>
<path d="M1299.26 265.13H1340.76V228.79H1299.26V265.13Z" fill="white"/>
<path d="M1361.13 318.53H1402.64V282.19H1361.13V318.53Z" fill="white"/>
<path d="M1299.26 318.53H1340.76V282.19H1299.26V318.53Z" fill="white"/>
<path d="M1361.13 371.92H1402.64V335.57H1361.13V371.92Z" fill="white"/>
<path d="M1299.26 371.92H1340.76V335.57H1299.26V371.92Z" fill="white"/>
<path d="M1361.13 425.311H1402.64V388.96H1361.13V425.311Z" fill="white"/>
<path d="M1299.26 425.311H1340.76V388.96H1299.26V425.311Z" fill="white"/>
<path d="M1222.56 444.68H1264.07V408.33H1222.56V444.68Z" fill="white"/>
<path d="M1222.56 498.07H1264.07V461.73H1222.56V498.07Z" fill="white"/>
<path d="M1222.56 551.46H1264.07V515.11H1222.56V551.46Z" fill="white"/>
<path d="M1222.56 604.86H1264.07V568.51H1222.56V604.86Z" fill="white"/>
<path d="M1222.56 658.25H1264.07V621.91H1222.56V658.25Z" fill="white"/>
<path d="M1222.56 711.64H1264.07V675.29H1222.56V711.64Z" fill="white"/>
<path d="M1361.13 478.07H1402.64V441.72H1361.13V478.07Z" fill="white"/>
<path d="M1299.26 478.07H1340.76V441.72H1299.26V478.07Z" fill="white"/>
<path d="M1222.56 764.4H1264.07V728.05H1222.56V764.4Z" fill="white"/>
<path d="M1361.13 530.82H1402.64V494.47H1361.13V530.82Z" fill="white"/>
<path d="M1299.26 530.82H1340.76V494.47H1299.26V530.82Z" fill="white"/>
<path d="M1222.56 817.16H1264.07V780.81H1222.56V817.16Z" fill="white"/>
<path d="M1361.13 583.58H1402.64V547.23H1361.13V583.58Z" fill="white"/>
<path d="M1299.26 583.58H1340.76V547.23H1299.26V583.58Z" fill="white"/>
<path d="M1222.56 869.91H1264.07V833.57H1222.56V869.91Z" fill="white"/>
<path d="M1361.13 636.34H1402.64V599.99H1361.13V636.34Z" fill="white"/>
<path d="M1299.26 636.34H1340.76V599.99H1299.26V636.34Z" fill="white"/>
<path d="M1361.13 689.1H1402.64V652.75H1361.13V689.1Z" fill="white"/>
<path d="M1299.26 689.1H1340.76V652.75H1299.26V689.1Z" fill="white"/>
<path d="M847.7 385.26H870.11V353.43H847.7V385.26Z" fill="white"/>
<path d="M808.859 385.26H831.27V353.43H808.859V385.26Z" fill="white"/>
<path d="M847.7 433.16H870.11V401.32H847.7V433.16Z" fill="white"/>
<path d="M808.859 433.16H831.27V401.32H808.859V433.16Z" fill="white"/>
<path d="M847.7 481.061H870.11V449.221H847.7V481.061Z" fill="white"/>
<path d="M808.859 481.061H831.27V449.221H808.859V481.061Z" fill="white"/>
<path d="M847.7 528.96H870.11V497.12H847.7V528.96Z" fill="white"/>
<path d="M808.859 528.96H831.27V497.12H808.859V528.96Z" fill="white"/>
<path d="M847.7 578.05H870.11V546.21H847.7V578.05Z" fill="white"/>
<path d="M808.859 578.05H831.27V546.21H808.859V578.05Z" fill="white"/>
<path d="M847.7 627.14H870.11V595.31H847.7V627.14Z" fill="white"/>
<path d="M808.859 627.14H831.27V595.31H808.859V627.14Z" fill="white"/>
<path d="M847.7 676.23H870.11V644.391H847.7V676.23Z" fill="white"/>
<path d="M808.859 676.23H831.27V644.391H808.859V676.23Z" fill="white"/>
<path d="M847.7 725.32H870.11V693.48H847.7V725.32Z" fill="white"/>
<path d="M808.859 725.32H831.27V693.48H808.859V725.32Z" fill="white"/>
<path d="M847.7 774.92H870.11V743.08H847.7V774.92Z" fill="white"/>
<path d="M808.859 774.92H831.27V743.08H808.859V774.92Z" fill="white"/>
<path d="M847.7 824.53H870.11V792.69H847.7V824.53Z" fill="white"/>
<path d="M808.859 824.53H831.27V792.69H808.859V824.53Z" fill="white"/>
<path d="M847.7 874.14H870.11V842.31H847.7V874.14Z" fill="white"/>
<path d="M808.859 874.14H831.27V842.31H808.859V874.14Z" fill="white"/>
<path d="M300.5 222.65H322.91V185.14H300.5V222.65Z" fill="white"/>
<path d="M261.66 222.65H284.07V185.14H261.66V222.65Z" fill="white"/>
<path d="M300.5 279.07H322.91V241.56H300.5V279.07Z" fill="white"/>
<path d="M261.66 279.07H284.07V241.56H261.66V279.07Z" fill="white"/>
<path d="M300.5 336.9H322.91V299.39H300.5V336.9Z" fill="white"/>
<path d="M261.66 336.9H284.07V299.39H261.66V336.9Z" fill="white"/>
<path d="M300.5 394.74H322.91V357.23H300.5V394.74Z" fill="white"/>
<path d="M261.66 394.74H284.07V357.23H261.66V394.74Z" fill="white"/>
<path d="M300.5 452.57H322.91V415.06H300.5V452.57Z" fill="white"/>
<path d="M261.66 452.57H284.07V415.06H261.66V452.57Z" fill="white"/>
<path d="M300.5 510.4H322.91V472.89H300.5V510.4Z" fill="white"/>
<path d="M261.66 510.4H284.07V472.89H261.66V510.4Z" fill="white"/>
<path d="M300.5 568.84H322.91V531.33H300.5V568.84Z" fill="white"/>
<path d="M261.66 568.84H284.07V531.33H261.66V568.84Z" fill="white"/>
<path d="M300.5 627.29H322.91V589.78H300.5V627.29Z" fill="white"/>
<path d="M261.66 627.29H284.07V589.78H261.66V627.29Z" fill="white"/>
<path d="M300.5 685.73H322.91V648.22H300.5V685.73Z" fill="white"/>
<path d="M261.66 685.73H284.07V648.22H261.66V685.73Z" fill="white"/>
<path d="M300.5 744.18H322.91V706.67H300.5V744.18Z" fill="white"/>
<path d="M261.66 744.18H284.07V706.67H261.66V744.18Z" fill="white"/>
<path d="M764.64 385.26H787.05V353.43H764.64V385.26Z" fill="white"/>
<path d="M725.8 385.26H748.21V353.43H725.8V385.26Z" fill="white"/>
<path d="M764.64 336.14H787.05V304.31H764.64V336.14Z" fill="white"/>
<path d="M725.8 336.14H748.21V304.31H725.8V336.14Z" fill="white"/>
<path d="M764.64 287.03H787.05V255.19H764.64V287.03Z" fill="white"/>
<path d="M725.8 287.03H748.21V255.19H725.8V287.03Z" fill="white"/>
<path d="M764.64 433.16H787.05V401.32H764.64V433.16Z" fill="white"/>
<path d="M725.8 433.16H748.21V401.32H725.8V433.16Z" fill="white"/>
<path d="M764.64 481.061H787.05V449.221H764.64V481.061Z" fill="white"/>
<path d="M725.8 481.061H748.21V449.221H725.8V481.061Z" fill="white"/>
<path d="M764.64 528.96H787.05V497.12H764.64V528.96Z" fill="white"/>
<path d="M725.8 528.96H748.21V497.12H725.8V528.96Z" fill="white"/>
<path d="M764.64 578.05H787.05V546.21H764.64V578.05Z" fill="white"/>
<path d="M725.8 578.05H748.21V546.21H725.8V578.05Z" fill="white"/>
<path d="M764.64 627.14H787.05V595.31H764.64V627.14Z" fill="white"/>
<path d="M725.8 627.14H748.21V595.31H725.8V627.14Z" fill="white"/>
<path d="M764.64 676.23H787.05V644.391H764.64V676.23Z" fill="white"/>
<path d="M725.8 676.23H748.21V644.391H725.8V676.23Z" fill="white"/>
<path d="M764.64 725.32H787.05V693.48H764.64V725.32Z" fill="white"/>
<path d="M725.8 725.32H748.21V693.48H725.8V725.32Z" fill="white"/>
<path d="M764.64 774.92H787.05V743.08H764.64V774.92Z" fill="white"/>
<path d="M725.8 774.92H748.21V743.08H725.8V774.92Z" fill="white"/>
<path d="M764.64 824.53H787.05V792.69H764.64V824.53Z" fill="white"/>
<path d="M725.8 824.53H748.21V792.69H725.8V824.53Z" fill="white"/>
<path d="M764.64 874.14H787.05V842.31H764.64V874.14Z" fill="white"/>
<path d="M725.8 874.14H748.21V842.31H725.8V874.14Z" fill="white"/>
<path opacity="0.31" d="M1004.99 1061.48C1534.29 1061.48 1963.38 1017.5 1963.38 963.24C1963.38 908.984 1534.29 865 1004.99 865C475.685 865 46.5996 908.984 46.5996 963.24C46.5996 1017.5 475.685 1061.48 1004.99 1061.48Z" fill="#26292C"/>
<path d="M379.58 309.3C392.75 309.3 403.41 299.7 403.36 287.88L403.26 263.26C403.26 263.26 422.97 260.51 423.21 242.81C423.45 225.11 420 184.48 420 184.48C397.18 175.68 370.85 178.65 351.17 192.25L355.83 289.48C356.76 300.65 367.11 309.3 379.58 309.3Z" fill="#F2BFAF"/>
<path d="M403.29 263C394.29 263.16 385.413 260.894 377.59 256.44C377.59 256.44 383.67 269.17 403.34 267.58L403.29 263Z" fill="#AA6550"/>
<path d="M353.39 212.6C353.06 212.47 339.85 209 340.28 221.1C340.71 233.2 354.15 230.32 354.16 229.97C354.17 229.62 353.39 212.6 353.39 212.6Z" fill="#F2BFAF"/>
<path d="M349.88 225.5C349.82 225.5 349.65 225.66 349.26 225.83C348.705 226.061 348.087 226.093 347.51 225.92C346.07 225.49 344.8 223.49 344.65 221.31C344.589 220.28 344.777 219.251 345.2 218.31C345.328 217.914 345.55 217.554 345.848 217.263C346.146 216.972 346.511 216.758 346.91 216.64C347.172 216.562 347.452 216.573 347.707 216.671C347.962 216.768 348.177 216.947 348.32 217.18C348.51 217.51 348.43 217.75 348.51 217.77C348.59 217.79 348.79 217.56 348.66 217.07C348.57 216.761 348.371 216.495 348.1 216.32C347.71 216.085 347.252 215.989 346.8 216.05C346.265 216.153 345.764 216.391 345.346 216.741C344.928 217.09 344.606 217.541 344.41 218.05C343.876 219.096 343.637 220.268 343.72 221.44C343.89 223.88 345.36 226.12 347.33 226.57C347.693 226.652 348.068 226.661 348.434 226.596C348.8 226.53 349.149 226.393 349.46 226.19C349.87 225.8 349.93 225.52 349.88 225.5Z" fill="#AA6550"/>
<path d="M427.21 178.67C426.97 178.2 426.74 177.72 426.48 177.26C426.251 176.86 426.001 176.473 425.73 176.1C424.17 174.33 422.73 172.51 421.02 170.85L420.48 170.35L419.94 169.93C419.11 169.32 418.26 168.75 417.4 168.2C417.24 168.2 416.66 168.2 415.55 168.14C412.342 168.011 409.149 167.63 406 167L392.55 166.65C381.9 166.36 371.34 166.9 360.69 167.2C360.33 167.2 359.96 167.2 359.59 167.2C358.095 168.933 356.884 170.89 356 173C353.845 172.492 351.591 172.597 349.493 173.304C347.395 174.011 345.537 175.291 344.13 177C342.9 178.645 342.017 180.521 341.534 182.517C341.051 184.513 340.978 186.586 341.32 188.61C341.748 191.339 342.507 194.005 343.58 196.55C343.58 196.78 343.58 197 343.58 197.23C343.78 206.96 345.01 218.39 349.63 218.45C357.69 218.56 355.77 204.93 355.77 204.93C365.66 201.5 361.98 188.19 364.45 186.17C366.92 184.15 372.1 179.47 392.8 188.97C400.8 192.66 411.54 192.54 417.37 191.35C417.54 191.35 417.72 191.35 417.89 191.26H418.01C418.065 191.236 418.122 191.216 418.18 191.2C420.036 190.788 421.823 190.115 423.49 189.2C425.384 188.255 426.92 186.722 427.87 184.83C428.295 183.908 428.414 182.875 428.211 181.88C428.007 180.886 427.492 179.982 426.74 179.3L427.21 178.67Z" fill="black"/>
<path d="M186 293C186.51 293.74 192.11 303.22 192.11 303.22L187.48 287.14C186.04 282.07 189.53 282.6 190.55 284.41C191.57 286.22 197.93 301.55 197.93 301.55C192 281.55 193.85 279.84 195.52 279.55C197.19 279.26 202.43 297.48 202.43 297.48C203.819 295.36 205.647 293.563 207.79 292.21C213.16 288.89 222.1 292.21 222.53 294.47C222.96 296.73 219.77 297.38 219.77 297.38C213.04 293.49 206.15 298.2 206.86 303.96C207.57 309.72 215.69 308.96 216.7 304.82C218.92 295.82 222.37 298.75 222.37 298.75L218.91 318.59L222.57 328.59L242.57 377.26L280.79 341.53C280.79 341.53 301.22 382.09 301.71 383.45C302.03 384.36 282.54 402.56 269.71 414.39C262.466 420.906 253.012 424.417 243.27 424.21C226.67 424 212.37 413.67 208.57 399.21L193.46 329.3L186.38 306.4C186.38 306.4 183.83 297.09 183.22 294.91C182.42 291.9 184.67 291 186 293ZM525.59 429.51C514.19 431.31 501.09 423.95 494.09 415.67L465.62 382L499.07 355.21L529.07 388.82L641.64 383.46L668.23 370.08C670.083 369.147 672.175 368.799 674.23 369.08L710.82 378.35L676.48 387.82L616.58 408.05L525.59 429.51Z" fill="#F2BFAF"/>
<path d="M270.46 924.76L265.74 942.54C265.74 942.54 233.34 980.33 223.35 978.48C216.8 977.27 224.85 967.41 237.17 938.71L239.76 926.86L270.46 924.76Z" fill="#FF991F"/>
<path d="M222 972.901C222.047 973.094 222.136 973.275 222.26 973.431C222.603 973.928 223.073 974.324 223.62 974.58C224.516 975.012 225.508 975.205 226.5 975.141C227.801 975.034 229.058 974.623 230.17 973.94C235.924 969.768 241.381 965.201 246.5 960.271C251.604 955.445 256.445 950.347 261 945C262.73 943 264.08 941.27 265 940.1C265.36 939.61 265.7 939.16 266 938.73C266.131 938.581 266.239 938.412 266.32 938.23C266.164 938.36 266.02 938.504 265.89 938.661C265.54 939.081 265.17 939.51 264.77 939.97L260.62 944.75C257.08 948.75 252.04 954.19 246.04 959.84C240.97 964.74 235.614 969.335 230 973.6C229.113 974.232 228.084 974.635 227.003 974.771C225.923 974.907 224.826 974.773 223.81 974.38C223.075 974.075 222.446 973.56 222 972.901Z" fill="black"/>
<path d="M226.62 960.75C226.62 960.85 227.62 960.67 229.24 960.88C231.291 961.178 233.268 961.857 235.07 962.88C236.842 963.785 238.348 965.136 239.44 966.8C240.21 968.07 240.44 968.98 240.53 968.95C240.514 968.127 240.28 967.322 239.85 966.62C238.816 964.803 237.268 963.331 235.4 962.39C233.519 961.328 231.432 960.68 229.28 960.49C228.385 960.366 227.474 960.455 226.62 960.75ZM257.29 951.89C257.4 951.89 256.95 950.61 256.7 948.55C256.376 945.846 256.945 943.111 258.32 940.76C259.748 938.29 261.912 936.328 264.51 935.15C265.644 934.683 266.811 934.299 268 934C267.669 933.94 267.331 933.94 267 934C266.08 934.133 265.18 934.378 264.32 934.73C261.554 935.852 259.242 937.865 257.75 940.45C256.31 942.888 255.779 945.758 256.25 948.55C256.39 949.382 256.608 950.199 256.9 950.99C256.969 951.313 257.102 951.619 257.29 951.89Z" fill="black"/>
<path d="M268.4 927.78C268.22 927.72 267.21 930.19 266.6 933.35C265.99 936.51 265.37 939 265.52 939.04C265.67 939.08 266.64 936.61 267.23 933.45C267.82 930.29 268.55 927.83 268.4 927.78ZM236.6 941.22C236.6 941.39 238.45 941.34 240.6 941.8C242.75 942.26 244.4 943.01 244.5 942.86C244.6 942.71 243.04 941.71 240.75 941.24C239.393 940.869 237.961 940.862 236.6 941.22ZM235.93 944.27C235.93 944.44 237.49 944.27 239.29 944.69C241.09 945.11 242.4 945.81 242.5 945.69C242.6 945.57 241.39 944.56 239.44 944.15C238.289 943.803 237.055 943.845 235.93 944.27ZM233.34 948.09C234.508 948.026 235.679 948.066 236.84 948.21C237.945 948.521 239.017 948.94 240.04 949.46C240.19 949.39 239.04 948.07 236.98 947.65C234.92 947.23 233.24 948 233.34 948.09ZM238.83 940C239.194 940.015 239.557 939.978 239.91 939.89C240.881 939.719 241.84 939.485 242.78 939.19C244.156 938.766 245.494 938.228 246.78 937.58C247.541 937.205 248.282 936.791 249 936.34C249.434 936.129 249.808 935.814 250.091 935.423C250.374 935.033 250.555 934.578 250.62 934.1C250.55 932.93 249.09 932.47 248.15 932.72C247.295 932.973 246.518 933.437 245.89 934.07C244.837 934.987 243.836 935.962 242.89 936.99C242.259 937.668 241.665 938.379 241.11 939.12C240.72 939.64 240.53 939.94 240.57 939.97C240.61 940 241.57 938.91 243.23 937.25C244.06 936.42 245.08 935.46 246.23 934.45C246.788 933.894 247.475 933.485 248.23 933.26C248.97 933.09 249.92 933.45 249.93 934.14C249.94 934.83 249.24 935.45 248.58 935.89C247.92 936.33 247.13 936.76 246.43 937.12C245.172 937.775 243.868 938.34 242.53 938.81C240.32 939.57 238.8 939.85 238.83 940Z" fill="black"/>
<path d="M240.53 939.58C240.578 939.286 240.578 938.985 240.53 938.69C240.506 937.88 240.436 937.072 240.32 936.27C240.176 935.054 239.838 933.869 239.32 932.76C238.994 932.076 238.566 931.446 238.05 930.89C237.747 930.515 237.336 930.242 236.871 930.111C236.407 929.981 235.914 929.998 235.46 930.16C235.081 930.399 234.789 930.754 234.627 931.172C234.465 931.59 234.441 932.048 234.56 932.48C234.69 933.209 234.929 933.913 235.27 934.57C235.855 935.7 236.637 936.716 237.58 937.57C238.22 938.159 238.913 938.688 239.65 939.15C239.908 939.349 240.199 939.501 240.51 939.6C240.58 939.52 239.41 938.79 237.91 937.3C237.054 936.443 236.342 935.453 235.8 934.37C235.504 933.756 235.295 933.103 235.18 932.43C235.09 931.77 235.18 930.96 235.76 930.68C236.34 930.4 237.09 930.79 237.59 931.29C238.07 931.8 238.474 932.375 238.79 933C239.315 934.059 239.689 935.187 239.9 936.35C240.039 937.44 240.249 938.519 240.53 939.58Z" fill="black"/>
<path opacity="0.4" d="M265.74 942.54L268 934C268 934 260.06 935.32 258 940.65C256.785 943.533 256.258 946.658 256.46 949.78L239.2 966.47C239.2 966.47 234.87 958.87 227.03 960.7C227.03 960.7 220.86 972.88 221.03 975.93C221.24 979.29 225.17 978.62 226.58 978.04C232.206 975.117 237.404 971.436 242.03 967.1C250.341 959.318 258.255 951.121 265.74 942.54Z" fill="black"/>
<path d="M431.54 933.75L431.69 910.03L382.2 909.49L381.57 944.19L384.64 944.4C398.28 945.23 454.09 947.75 463.26 945.4C473.48 942.71 431.54 933.75 431.54 933.75Z" fill="#FF991F"/>
<path opacity="0.4" d="M399.52 944C398.77 940.136 396.551 936.713 393.33 934.45C389.986 932.049 385.92 930.867 381.81 931.1L381.63 943.52L399.52 944Z" fill="black"/>
<path opacity="0.4" d="M452 938.78C452 938.78 466.69 942.78 464.82 944.92C462.95 947.06 406.45 946.43 381.55 944.19L381.64 943.19L447.55 944.44C447.55 944.44 449.14 938.86 452 938.78Z" fill="black"/>
<path d="M380.89 943.16C381.166 943.216 381.447 943.246 381.73 943.25L384.18 943.41L393.18 943.86C400.77 944.2 411.27 944.53 422.87 944.67C434.47 944.81 444.98 944.73 452.58 944.58L461.58 944.35L464.03 944.25C464.314 944.25 464.599 944.227 464.88 944.18C464.593 944.157 464.306 944.157 464.02 944.18H461.58L452.58 944.24C444.98 944.24 434.48 944.31 422.88 944.17C411.28 944.03 400.79 943.76 393.19 943.52L384.19 943.24H381.74C381.459 943.189 381.175 943.163 380.89 943.16Z" fill="black"/>
<path d="M447.54 945.14C447.73 945.14 447.89 943.24 449.28 941.31C450.67 939.38 452.49 938.39 452.39 938.25C450.893 938.715 449.611 939.697 448.77 941.02C447.29 943.1 447.39 945.17 447.54 945.14ZM433 938.329C433.14 938.409 433.85 937.65 434.59 936.64C435.33 935.63 435.81 934.74 435.67 934.64C435.53 934.54 434.82 935.309 434.09 936.329C433.36 937.349 432.9 938.249 433 938.329ZM429.05 936.38C429.16 936.49 429.95 936.03 430.81 935.38C431.67 934.73 432.29 934.069 432.18 933.949C432.07 933.829 431.28 934.299 430.42 934.949C429.56 935.599 429 936.27 429.05 936.38ZM426.58 932.16C428.278 932.549 430.037 932.587 431.75 932.27C430.054 931.867 428.292 931.829 426.58 932.16ZM425.75 929.189C426.615 929.713 427.609 929.983 428.62 929.969C429.63 930.146 430.67 930.035 431.62 929.65C430.654 929.501 429.677 929.431 428.7 929.439C427.725 929.273 426.739 929.19 425.75 929.189Z" fill="black"/>
<path d="M434.77 934.47C435.823 934.638 436.896 934.638 437.95 934.47C439.095 934.352 440.229 934.142 441.34 933.84C442.03 933.68 442.7 933.445 443.34 933.14C443.524 933.053 443.69 932.931 443.827 932.78C443.965 932.629 444.071 932.452 444.14 932.26C444.191 932.046 444.174 931.821 444.092 931.616C444.009 931.412 443.865 931.239 443.68 931.12C442.475 930.563 441.124 930.403 439.823 930.664C438.522 930.925 437.337 931.592 436.44 932.57C435.95 933.113 435.588 933.759 435.38 934.46C435.24 934.95 435.25 935.23 435.29 935.23C435.631 934.34 436.133 933.52 436.77 932.81C437.525 932.054 438.473 931.518 439.51 931.26C440.761 930.892 442.103 930.988 443.29 931.53C443.79 931.87 443.59 932.4 443.02 932.7C442.446 932.979 441.847 933.2 441.23 933.36C440.152 933.681 439.052 933.925 437.94 934.09C436 934.39 434.77 934.38 434.77 934.47Z" fill="black"/>
<path d="M435.59 934.62C435.791 934.332 435.93 934.006 435.999 933.662C436.068 933.318 436.065 932.963 435.99 932.62C435.896 931.862 435.606 931.142 435.15 930.53C434.864 930.089 434.475 929.723 434.017 929.464C433.559 929.205 433.046 929.059 432.52 929.04C432.368 929.058 432.22 929.107 432.087 929.183C431.954 929.26 431.837 929.362 431.744 929.484C431.651 929.606 431.583 929.746 431.544 929.894C431.506 930.043 431.498 930.198 431.52 930.35C431.592 930.811 431.77 931.25 432.04 931.63C432.456 932.272 432.954 932.856 433.52 933.37C434.022 933.896 434.638 934.299 435.32 934.55C435.38 934.48 434.7 934.03 433.83 933.12C433.336 932.591 432.901 932.011 432.53 931.39C432.1 930.78 431.81 929.69 432.61 929.57C433.026 929.613 433.428 929.746 433.787 929.96C434.147 930.174 434.455 930.464 434.69 930.81C435.124 931.357 435.425 931.997 435.57 932.68C435.646 933.324 435.652 933.974 435.59 934.62ZM382.07 931C382.07 931.1 383.49 930.89 385.72 931.15C388.578 931.463 391.31 932.495 393.66 934.15C395.867 935.765 397.564 937.98 398.55 940.53C399.28 942.44 399.34 943.72 399.45 943.71C399.507 943.413 399.507 943.107 399.45 942.81C399.377 941.993 399.21 941.188 398.95 940.41C398.041 937.728 396.322 935.394 394.03 933.73C391.598 931.995 388.739 930.958 385.76 930.73C384.852 930.645 383.938 930.645 383.03 930.73C382.696 930.76 382.371 930.851 382.07 931Z" fill="black"/>
<path d="M387.46 912.58C387.29 912.58 387.04 916.67 386.9 921.71C386.705 924.75 386.705 927.8 386.9 930.84C387.07 930.84 387.32 926.76 387.46 921.72C387.654 918.677 387.654 915.624 387.46 912.58ZM405.81 939.77C410.582 940.646 415.465 940.744 420.27 940.06C420.27 939.91 417.02 940.06 413.04 939.96C409.06 939.86 405.83 939.62 405.81 939.77ZM396.11 939.65C395.99 939.76 396.36 940.27 396.68 940.94C397 941.61 397.18 942.2 397.35 942.19C397.52 942.18 397.61 941.49 397.23 940.72C396.85 939.95 396.22 939.54 396.11 939.65ZM392.51 935.53C392.39 935.63 392.7 936.09 393.21 936.53C393.72 936.97 394.21 937.3 394.34 937.19C394.47 937.08 394.15 936.63 393.64 936.19C393.13 935.75 392.63 935.42 392.51 935.53ZM387.31 933.6C387.31 933.75 388 933.75 388.72 933.99C389.44 934.23 389.96 934.58 390.09 934.48C390.22 934.38 389.82 933.77 388.92 933.48C388.02 933.19 387.26 933.46 387.31 933.6ZM383.6 932.68C383.53 932.81 383.81 933.05 384.22 933.19C384.63 933.33 385.01 933.35 385.08 933.19C385.15 933.03 384.86 932.82 384.45 932.67C384.04 932.52 383.66 932.54 383.6 932.68Z" fill="black"/>
<path d="M217.88 927.93L315.75 462.65L451.79 481.26L442.12 923.53L365.05 924.98L377.85 539.14L291.15 927.93H217.88Z" fill="#08A742"/>
<path d="M300.71 507.16L456.21 501.95L451.79 374.55L472.17 395.42L513.73 363.11L468 307.16C456.14 292.76 438.26 283.29 418.49 280.88C412.69 280.17 408.28 279.82 405.41 279.5C388.824 284.18 371.266 284.18 354.68 279.5C347.545 279.714 340.475 280.933 333.68 283.12C321.196 287.036 309.744 293.692 300.16 302.6L249.16 364.51L292.77 398.38L317.62 378.76L300.71 507.16Z" fill="black"/>
<path d="M449.47 326.47C448.97 326.47 449.47 347.67 450.54 373.79C451.61 399.91 452.91 421.08 453.4 421.06C453.89 421.04 453.4 399.86 452.33 373.73C451.26 347.6 450 326.45 449.47 326.47ZM323.11 334.82C322.62 334.82 320.9 347.03 319.27 362.19C317.64 377.35 316.71 389.67 317.2 389.71C317.69 389.75 319.41 377.5 321.04 362.34C322.67 347.18 323.6 334.86 323.11 334.82ZM399.24 280.9C398.94 281.25 400.11 282.53 401.87 283.76C403.63 284.99 405.29 285.76 405.59 285.36C405.89 284.96 404.72 283.73 402.97 282.5C401.22 281.27 399.54 280.55 399.24 280.9ZM392.17 282.27C391.73 282.49 392.05 283.76 392.51 285.27C392.97 286.78 393.45 287.98 393.95 287.96C394.45 287.94 394.76 286.51 394.23 284.83C393.7 283.15 392.59 282.06 392.17 282.27ZM384.11 283.18C383.62 283.18 383.11 284.35 383.11 285.85C383.11 287.35 383.36 288.58 383.85 288.6C384.34 288.62 384.85 287.43 384.85 285.93C384.85 284.43 384.6 283.2 384.11 283.18ZM373.78 282.5C373.28 282.5 372.85 283.78 372.39 285.31C371.93 286.84 371.57 288.16 372.01 288.38C372.45 288.6 373.59 287.48 374.11 285.73C374.63 283.98 374.26 282.5 373.78 282.5ZM362.23 281.38C361.76 281.23 360.96 282.16 360.03 283.24C359.1 284.32 358.35 285.24 358.64 285.65C358.93 286.06 360.36 285.51 361.46 284.21C362.56 282.91 362.68 281.52 362.23 281.38ZM356.16 279.81C355.89 279.44 354.72 279.7 353.54 280.39C352.36 281.08 351.62 281.94 351.88 282.31C352.14 282.68 353.33 282.42 354.51 281.73C355.69 281.04 356.43 280.18 356.16 279.81Z" fill="#08A742"/>
<path d="M319.85 365.09C319.85 365.53 349.01 365.9 384.96 365.93C420.91 365.96 450.08 365.61 450.08 365.16C450.08 364.71 420.93 364.35 384.96 364.32C348.99 364.29 319.85 364.64 319.85 365.09ZM318.73 373.73C318.73 374.17 347.89 374.55 383.84 374.57C419.79 374.59 448.96 374.25 448.96 373.81C448.96 373.37 419.81 372.99 383.84 372.97C347.87 372.95 318.73 373.29 318.73 373.73ZM317.61 382.38C317.61 382.82 347.56 383.38 384.51 383.71C421.46 384.04 451.43 383.88 451.43 383.44C451.43 383 421.49 382.44 384.53 382.11C347.57 381.78 317.62 381.93 317.61 382.38ZM275.35 331.79C275.19 331.94 277.3 334.07 280.93 337.29C284.56 340.51 289.75 344.82 295.71 349.29C301.67 353.76 307.26 357.68 311.41 360.36C315.56 363.04 318.24 364.55 318.41 364.36C318.58 364.17 316.15 362.36 312.21 359.44L296.89 348.05L281.82 336.39C277.94 333.46 275.53 331.63 275.35 331.79ZM267.47 339.52C267.32 339.68 269.81 341.94 274.07 345.36C278.33 348.78 284.38 353.36 291.29 358.12C298.2 362.88 304.67 366.97 309.45 369.79C314.23 372.61 317.3 374.19 317.45 374.01C317.6 373.83 314.77 371.91 310.19 368.86C305.61 365.81 299.29 361.61 292.4 356.86C285.51 352.11 279.4 347.7 274.9 344.51C270.4 341.32 267.64 339.35 267.47 339.52ZM263.47 346.83C263.15 347.17 273.57 355.63 286.75 365.74C299.93 375.85 310.87 383.74 311.19 383.44C311.51 383.14 301.09 374.64 287.91 364.53C274.73 354.42 263.79 346.49 263.47 346.83ZM451.3 367.78C451.42 367.95 454.08 366.78 457.92 364.16C462.785 360.737 467.366 356.928 471.62 352.77C476.62 348.03 481.04 343.68 484.18 340.47C487.32 337.26 489.18 335.21 489.01 335.05C488.84 334.89 486.65 336.69 483.27 339.69C479.89 342.69 475.27 346.94 470.32 351.69C465.37 356.44 460.71 360.54 457.13 363.3C453.55 366.06 451.16 367.58 451.3 367.78ZM455.69 378.33C455.84 378.49 458.42 376.8 462.39 373.84C466.36 370.88 471.67 366.63 477.28 361.68C482.89 356.73 487.73 352.03 491.1 348.53C494.47 345.03 496.39 342.74 496.21 342.6C496.03 342.46 493.77 344.47 490.21 347.76C486.65 351.05 481.66 355.61 476.07 360.54C470.48 365.47 465.32 369.83 461.59 373C457.86 376.17 455.52 378.15 455.69 378.33ZM460.49 385.85C460.68 386.01 462.99 383.97 466.7 380.68C470.41 377.39 475.54 372.85 481.37 367.99C487.2 363.13 492.6 358.85 496.53 355.77C500.46 352.69 502.89 350.77 502.73 350.59C502.57 350.41 499.89 352.03 495.73 354.9C491.57 357.77 486.01 361.9 480.15 366.81C474.29 371.72 469.27 376.39 465.78 379.9C462.29 383.41 460.31 385.71 460.49 385.85Z" fill="#FAFAFA"/>
<path d="M301 501.26C301 501.71 335.57 501.26 378.17 500.33C420.77 499.4 455.32 498.23 455.31 497.79C455.3 497.35 420.75 497.79 378.13 498.73C335.51 499.67 301 500.82 301 501.26Z" fill="#08A742"/>
<path d="M607.1 597.05C607.1 603.12 683.8 613.4 685.02 613.4C686.24 613.4 701.16 611.31 701.16 611.31L728.44 613.4C729.243 612.74 729.92 611.94 730.44 611.04C731.509 609.256 732.159 607.252 732.34 605.18C732.416 604.516 732.452 603.848 732.45 603.18C732.88 597.61 729.97 588.84 729.97 588.84C713.62 589.57 703.55 584.2 698.78 580.71C694.78 572.71 689.42 564.14 683.5 560.42C683.5 560.42 629.58 563.5 618.32 568.72L618.21 568.78C607.18 574.06 607.1 597.05 607.1 597.05Z" fill="#FFCC00"/>
<path opacity="0.2" d="M607.1 597.05C607.1 603.12 683.8 613.4 685.02 613.4C686.24 613.4 701.16 611.31 701.16 611.31L728.44 613.4C729.243 612.74 729.92 611.94 730.44 611.04C731.509 609.256 732.159 607.252 732.34 605.18C732.416 604.516 732.452 603.848 732.45 603.18C732.88 597.61 729.97 588.84 729.97 588.84C713.62 589.57 703.55 584.2 698.78 580.71C694.78 572.71 689.42 564.14 683.5 560.42C683.5 560.42 629.58 563.5 618.32 568.72L618.21 568.78C607.18 574.06 607.1 597.05 607.1 597.05Z" fill="black"/>
<path d="M635.86 598.11C635.86 598.11 679.12 523.67 847.45 413.56C847.45 413.56 1209.64 373.56 1447 414.01C1447 414.01 1542.51 520.31 1552.91 573.51C1563.31 626.71 635.86 598.11 635.86 598.11Z" fill="black"/>
<g opacity="0.7">
<path d="M1314 410.74C1316.87 428.42 1322.79 474.929 1324.11 564.459C1189.87 575.459 1086.85 588.9 1086.85 588.9C1118 492.29 1202 418.079 1202 418.079C1239.18 413.638 1276.56 411.188 1314 410.74ZM1537.92 551.66C1516.8 552.35 1495.57 553.249 1474.53 554.329L1469.53 554.589C1466.41 554.729 1463.32 554.909 1460.24 555.079C1458.77 555.139 1457.3 555.23 1455.83 555.31C1416.39 557.46 1377.63 560.159 1340.83 563.069C1339.43 525.909 1335.95 456.81 1328.38 410.65C1392.17 410.77 1434.7 416.75 1442.3 417.91L1443.52 418.079C1443.58 418.129 1443.63 418.19 1443.66 418.26C1444.74 419.26 1445.78 420.379 1446.82 421.449C1447.21 421.859 1447.64 422.29 1448.04 422.73C1502.35 479.08 1537.92 551.66 1537.92 551.66ZM657.73 575.91C657.73 575.91 793.98 554.58 1055 575.91C1055 575.91 1107.62 480.209 1177 418.069C1177 418.069 1008.2 397.399 846.49 418.069C846.5 418.069 750.05 478.2 657.73 575.91Z" fill="white"/>
</g>
<path opacity="0.2" d="M1127.87 408.88C1127.87 408.88 981.97 402.57 901.28 408.48C820.59 414.39 806.71 441.18 806.71 441.18C828.391 434.206 850.544 428.799 873 425C872.92 430.76 873.32 439.38 876.22 442.74C878.42 445.28 912.3 441.88 919.22 438.74C923.9 436.62 929.85 426.14 933.22 419.54C1004.69 415 1127.87 408.88 1127.87 408.88ZM916 434.48C913.27 435.4 887.92 439.29 881.18 438.36C879.26 438.1 878.92 430.51 878.98 424.13C882.98 423.56 887.04 423.06 891.06 422.67C898.37 421.95 910.64 421.05 925.83 420.05C922.49 426.46 918.35 433.67 916 434.48Z" fill="black"/>
<path d="M879 611.29C879 611.29 892.34 522.01 907.09 512.82C915.819 507.335 925.58 503.7 935.77 502.14C935.77 502.14 943.85 467.49 956.87 463.59C969.89 459.69 1027.97 458.21 1034.61 463.59C1041.25 468.97 1034.61 503.59 1034.61 503.59C1034.61 503.59 1050.22 507.35 1057.31 519.26C1064.4 531.17 1053.05 611.26 1053.05 611.26L879 611.29Z" fill="black"/>
<path opacity="0.4" d="M879 611.29C879 611.29 892.34 522.01 907.09 512.82C915.819 507.335 925.58 503.7 935.77 502.14C935.77 502.14 943.85 467.49 956.87 463.59C969.89 459.69 1027.97 458.21 1034.61 463.59C1041.25 468.97 1034.61 503.59 1034.61 503.59C1034.61 503.59 1050.22 507.35 1057.31 519.26C1064.4 531.17 1053.05 611.26 1053.05 611.26L879 611.29Z" fill="white"/>
<path opacity="0.2" d="M968.14 575.22C973.27 587.46 986.37 596.59 998.91 601.99C1001.91 592.46 1006.16 580.86 1012.02 566.62C1004.15 557.71 993.13 551.38 979.11 553.09C979.11 553.09 963 562.82 968.14 575.22Z" fill="black"/>
<path opacity="0.2" d="M1014.45 573.34C1008.72 593.34 998.96 620.95 997.06 629.11C993.06 629.26 989 629.341 985.48 629.401C982.69 621.401 979.92 612.85 977.63 604.75C976.55 600.95 975.63 597.26 974.76 593.75C979.67 592.15 986.45 589.95 989.07 588.87C993.33 587.13 991.9 554.73 991.9 554.73C1000.83 558.996 1008.57 565.386 1014.45 573.34Z" fill="black"/>
<path d="M1119.36 611.29C1119.36 611.29 1132.7 522.01 1147.45 512.82C1156.18 507.335 1165.94 503.7 1176.13 502.14C1176.13 502.14 1184.21 467.49 1197.23 463.59C1210.25 459.69 1268.33 458.21 1274.97 463.59C1281.61 468.97 1274.97 503.59 1274.97 503.59C1274.97 503.59 1290.57 507.35 1297.67 519.26C1304.77 531.17 1293.41 611.26 1293.41 611.26L1119.36 611.29Z" fill="black"/>
<path opacity="0.4" d="M1119.36 611.29C1119.36 611.29 1132.7 522.01 1147.45 512.82C1156.18 507.335 1165.94 503.7 1176.13 502.14C1176.13 502.14 1184.21 467.49 1197.23 463.59C1210.25 459.69 1268.33 458.21 1274.97 463.59C1281.61 468.97 1274.97 503.59 1274.97 503.59C1274.97 503.59 1290.57 507.35 1297.67 519.26C1304.77 531.17 1293.41 611.26 1293.41 611.26L1119.36 611.29Z" fill="white"/>
<path d="M1051 576.419L1031.68 568.819L1031.28 590.819C1031.28 590.819 1049.48 594.309 1052.77 586.649L1051 576.419Z" fill="#FFB573"/>
<path d="M1014.5 571.799L1015.22 590.009L1031.32 590.829L1031.72 568.819L1014.5 571.799Z" fill="#FFB573"/>
<path d="M1086.26 573.51L1075.68 575.12L1076.47 597.96L1086.54 600.28L1086.26 573.51Z" fill="black"/>
<path d="M1053.81 626.66C1047.33 626.651 1040.89 625.712 1034.68 623.87C1020.34 619.64 1008.51 611.05 1001.36 599.68C994.209 588.31 992.579 575.52 996.759 563.68C1000.94 551.84 1010.63 542.07 1023.9 536.59C1037.6 531.1 1052.77 530.444 1066.9 534.73C1081.24 538.97 1093.07 547.56 1100.22 558.92C1107.37 570.28 1109.01 583.08 1104.82 594.92C1100.63 606.76 1091 616.53 1077.7 622C1070.12 625.1 1062 626.683 1053.81 626.66ZM1047.81 540.66C1041.3 540.641 1034.84 541.894 1028.81 544.35C1018.23 548.72 1010.53 556.43 1007.13 566.08C1003.73 575.73 1005.05 586.38 1010.96 595.77C1016.87 605.16 1026.62 612.25 1038.39 615.77C1049.7 619.22 1061.85 618.712 1072.83 614.33C1083.41 609.96 1091.11 602.25 1094.51 592.61C1097.91 582.97 1096.59 572.31 1090.68 562.91C1084.77 553.51 1075.02 546.43 1063.25 542.91C1058.24 541.411 1053.04 540.64 1047.81 540.62V540.66Z" fill="black"/>
<path d="M1069.45 547.4L1075.65 564.91L1091.52 562.51L1085.24 541.1L1069.45 547.4Z" fill="#FFB573"/>
<path d="M1114.55 615.549C1103.01 592.549 1063.26 561.149 1050.76 552.809C1038.26 544.469 1005.55 541.339 948.36 542.689C929.722 543.248 911.357 547.319 894.23 554.689C850.1 554.959 777.57 555.689 747.92 557.809C726.01 559.349 668.48 564.289 663.52 581.309C658.56 598.329 690.52 639.109 693.31 639.109H856.77C857.37 642.789 857.91 645.179 858.35 645.469C860.72 647.049 1043.21 658.059 1043.21 658.059C1043.21 658.059 1126.08 638.569 1114.55 615.549Z" fill="black"/>
<path d="M1114.55 615.549C1103.01 592.549 1063.26 561.149 1050.76 552.809C1038.26 544.469 1005.55 541.339 948.36 542.689C929.722 543.248 911.357 547.319 894.23 554.689C850.1 554.959 777.57 555.689 747.92 557.809C726.01 559.349 668.48 564.289 663.52 581.309C658.56 598.329 690.52 639.109 693.31 639.109H856.77C857.37 642.789 857.91 645.179 858.35 645.469C860.72 647.049 1043.21 658.059 1043.21 658.059C1043.21 658.059 1126.08 638.569 1114.55 615.549Z" fill="#08A742"/>
<path opacity="0.3" d="M828.07 502.09C883.4 475.87 935.75 454.09 940.52 452.09C881.46 478.97 813.84 530.09 768.23 567.57C695.12 570.07 657.72 575.94 657.72 575.94C750.05 478.22 846.5 418.09 846.5 418.09C902.01 411.01 958.3 408.77 1008.36 408.92C913.45 442.55 831.19 499.88 828.07 502.09Z" fill="white"/>
<path d="M1171.87 752.26H1121.94C1066.47 752.26 1021.49 802.58 1021.49 864.64C1021.49 926.7 1066.49 977.03 1121.94 977.03H1171.87C1227.35 977.03 1272.32 926.71 1272.32 864.64C1272.32 802.57 1227.35 752.26 1171.87 752.26Z" fill="black"/>
<path opacity="0.1" d="M1187.59 969.06C1233.94 969.06 1271.51 922.309 1271.51 864.64C1271.51 806.97 1233.94 760.22 1187.59 760.22C1141.24 760.22 1103.67 806.97 1103.67 864.64C1103.67 922.309 1141.24 969.06 1187.59 969.06Z" fill="white"/>
<path opacity="0.6" d="M1194.86 808.21C1169.86 808.21 1149.5 833.48 1149.5 864.64C1149.5 895.8 1169.81 921.08 1194.86 921.08C1219.91 921.08 1240.21 895.81 1240.21 864.64C1240.21 833.47 1219.91 808.21 1194.86 808.21Z" fill="#263238"/>
<path d="M597.31 752.26H547.38C491.91 752.26 446.93 802.58 446.93 864.64C446.93 926.7 491.91 977 547.38 977H597.31C652.78 977 697.76 926.68 697.76 864.61C697.76 802.54 652.78 752.26 597.31 752.26Z" fill="black"/>
<path opacity="0.1" d="M613.03 969.06C659.378 969.06 696.95 922.309 696.95 864.64C696.95 806.97 659.378 760.22 613.03 760.22C566.683 760.22 529.11 806.97 529.11 864.64C529.11 922.309 566.683 969.06 613.03 969.06Z" fill="white"/>
<path opacity="0.6" d="M620.29 921.07C645.337 921.07 665.64 895.805 665.64 864.64C665.64 833.475 645.337 808.21 620.29 808.21C595.244 808.21 574.94 833.475 574.94 864.64C574.94 895.805 595.244 921.07 620.29 921.07Z" fill="#263238"/>
<path d="M1625.45 742.78L1626.14 858.46C1626.25 876.98 1607.73 892.04 1584.86 892.04H1220.76C1190.11 917.22 1148.28 931.4 1104.61 931.4H871.61L845.09 899.2H792L785 904.6C765.5 919.51 739.69 927.83 712.86 927.83C684.38 927.83 657.13 918.46 637.34 901.88L634.13 899.2H512.88C492.88 899.2 475.74 887.54 472.31 871.57L439.93 720.9L1625.45 742.78Z" fill="black"/>
<path d="M1655 720.91L1635.6 709.33C1617.92 618.89 1592.6 578.86 1592.6 578.86L1548.71 548.67C1531.82 499.34 1470.71 416.57 1438.56 407.02C1438.5 407.035 1438.44 407.035 1438.38 407.02C1433.18 405.92 1315.78 385.92 1132.16 385.92C902.36 385.92 836.35 417.1 836.35 417.1C745.1 471.5 640.65 576.91 640.65 576.91C640.65 576.91 561.44 598.14 491.77 648.74C486.857 652.28 482.017 655.987 477.25 659.86C473.16 663.14 469.14 666.53 465.25 670.05C462.25 672.72 459.25 675.42 456.39 678.23C446.348 687.986 437.49 698.891 430 710.72C425.252 718.24 420.952 726.034 417.12 734.06C415.734 737.02 414.467 739.847 413.32 742.54C412.61 744.22 395.54 760.22 395.54 760.22C385.61 764.57 398.77 829.43 416.62 862.9C419.02 867.46 424.62 870.36 430.75 870.36H908.18C909 791.8 966.51 728.43 1037.37 728.43C1108.23 728.43 1165.7 791.8 1166.56 870.36H1385.49C1386.32 791.8 1443.83 728.43 1514.69 728.43C1528.63 728.427 1542.46 730.912 1555.53 735.77C1603.61 753.57 1639.11 801.94 1643.41 860.09C1643.52 861.09 1643.55 862.03 1643.62 862.99C1644.85 861.93 1645.97 860.744 1646.96 859.45C1648.5 858.881 1649.9 857.995 1651.08 856.85C1652.25 855.704 1653.17 854.324 1653.78 852.8C1672.17 812.39 1655 720.91 1655 720.91ZM657.76 575.91C750.09 478.22 846.54 418.09 846.54 418.09C1008.26 397.39 1177.07 418.09 1177.07 418.09C1107.65 480.22 1055.07 575.91 1055.07 575.91C794 554.59 657.72 575.9 657.72 575.9L657.76 575.91ZM1086.85 588.91C1118 492.29 1202 418.08 1202 418.08C1239.16 413.64 1276.52 411.19 1313.94 410.74C1316.81 428.42 1322.73 474.93 1324.05 564.46C1189.83 575.49 1086.81 588.9 1086.81 588.9L1086.85 588.91ZM1474.57 554.34L1469.57 554.6C1466.45 554.74 1463.36 554.92 1460.28 555.09C1458.81 555.15 1457.34 555.24 1455.87 555.32C1416.43 557.47 1377.67 560.17 1340.87 563.08C1339.47 525.92 1335.99 456.82 1328.42 410.66C1392.21 410.78 1434.74 416.76 1442.34 417.92L1443.56 418.09C1443.62 418.139 1443.67 418.201 1443.7 418.27C1444.78 419.27 1445.82 420.39 1446.86 421.46C1447.25 421.87 1447.68 422.3 1448.08 422.74C1502.29 479.09 1537.86 551.67 1537.86 551.67C1516.8 552.35 1495.57 553.25 1474.53 554.33L1474.57 554.34Z" fill="#FF991F"/>
<path d="M1039.28 752.26H989.35C933.88 752.26 888.9 802.58 888.9 864.64C888.9 926.7 933.88 977 989.35 977H1039.28C1094.75 977 1139.73 926.68 1139.73 864.61C1139.73 802.54 1094.75 752.26 1039.28 752.26Z" fill="black"/>
<path opacity="0.2" d="M1055 969.06C1101.35 969.06 1138.92 922.309 1138.92 864.64C1138.92 806.97 1101.35 760.22 1055 760.22C1008.65 760.22 971.08 806.97 971.08 864.64C971.08 922.309 1008.65 969.06 1055 969.06Z" fill="white"/>
<path opacity="0.6" d="M1062.27 808.21C1037.27 808.21 1016.91 833.48 1016.91 864.64C1016.91 895.8 1037.22 921.08 1062.27 921.08C1087.32 921.08 1107.62 895.81 1107.62 864.64C1107.62 833.47 1087.31 808.21 1062.27 808.21Z" fill="white"/>
<path d="M1507.76 752.26H1457.84C1402.36 752.26 1357.39 802.58 1357.39 864.64C1357.39 926.7 1402.39 977.03 1457.84 977.03H1507.76C1563.24 977.03 1608.22 926.71 1608.22 864.64C1608.22 802.57 1563.24 752.26 1507.76 752.26Z" fill="black"/>
<path opacity="0.2" d="M1523.49 969.06C1569.84 969.06 1607.41 922.309 1607.41 864.64C1607.41 806.97 1569.84 760.22 1523.49 760.22C1477.14 760.22 1439.57 806.97 1439.57 864.64C1439.57 922.309 1477.14 969.06 1523.49 969.06Z" fill="white"/>
<path opacity="0.6" d="M1530.75 921.07C1555.8 921.07 1576.1 895.805 1576.1 864.64C1576.1 833.475 1555.8 808.21 1530.75 808.21C1505.7 808.21 1485.4 833.475 1485.4 864.64C1485.4 895.805 1505.7 921.07 1530.75 921.07Z" fill="white"/>
<path d="M497.89 856.41L512.42 841.1C513.87 839.57 520.05 838.47 527.2 838.47H631.27C641.08 838.47 650.03 839.69 654.32 841.62L687.32 856.41H497.89Z" fill="black"/>
<path opacity="0.7" d="M936.52 719.32L865.99 742.32L716.18 759.04H468.42L403.09 744.18C404.23 742.45 405.49 740.64 406.89 738.75C410.83 733.46 415.13 728.448 419.76 723.75L420.48 723.04C428.232 715.405 436.831 708.682 446.11 703C449.02 701.19 451.96 699.47 454.97 697.75C485.2 701.62 495.27 719.33 495.27 719.33L500.83 746.81L502.44 754.81H672.33L682.98 746.87L719.98 719.35C719.98 719.35 770.98 705.35 814.08 700.97C848.39 697.48 913.85 696.97 913.85 696.97C932.76 700.92 936.52 719.32 936.52 719.32Z" fill="white"/>
<path d="M806 805.24L814.86 806.97C818.44 807.67 820.75 810.49 820.14 813.43L812.31 851.65C811.75 854.4 808.82 856.41 805.38 856.41H735.32C731.44 856.41 728.32 853.87 728.32 850.72C728.32 847.98 730.71 845.64 734.04 845.14C745.36 843.41 771.84 836.35 798.73 807.4C799.669 806.466 800.824 805.781 802.093 805.404C803.362 805.027 804.704 804.97 806 805.24ZM420.08 817.5C415.47 814.928 411.229 811.746 407.47 808.04L405.16 808.21L426.05 859.47H458.78L451.63 846.47C451.63 846.47 430.29 837.53 420.08 817.5Z" fill="black"/>
<path opacity="0.2" d="M946.76 718.69L876.23 745.94L726.42 765.73H478.65L413.32 748.15C414.47 746.1 415.73 743.96 417.12 741.72C421.213 735.233 425.751 729.039 430.7 723.18L425.45 742.53C424.53 745.92 427.45 749.26 432.54 750.66L469.78 760.93C475.931 762.589 482.444 762.295 488.42 760.09L511.06 751.23L512.67 760.67H682.57L693.22 751.27L716.86 761.03C721.174 762.71 725.844 763.264 730.43 762.64L863.63 745.33C871.98 744.24 878.72 740.46 881.24 735.46L888.99 720.05C891.17 715.73 888.75 711.05 882.92 708.25L863.75 699.15C898.06 695.01 924.06 692.26 924.06 692.26C943 696.92 946.76 718.69 946.76 718.69Z" fill="black"/>
<path d="M511.07 746.6H518.12L519.54 755.73H675.59L683.38 746.6L693.22 746.66L682.57 759.06H512.68L511.07 746.6Z" fill="black"/>
<path d="M504.65 765.73L511.07 762.04H683.38L687.28 765.73H504.65Z" fill="black"/>
<path d="M1655 720.9L1635.6 709.31C1630.76 684.037 1624.34 659.091 1616.38 634.619C1604.9 600.039 1594.72 582.36 1592.89 579.31C1592.71 578.99 1592.61 578.849 1592.61 578.849L1548.72 548.66C1531.83 499.33 1470.72 416.559 1438.57 407.009C1438.51 407.025 1438.45 407.025 1438.39 407.009C1265.99 389.129 1194.89 410.67 1194.89 410.67C1104.64 499.8 1067.56 588.92 1067.56 588.92C983.62 626.55 924.1 668.849 924.1 668.849C927.9 696.849 903.55 725.749 903.55 725.749L876.27 739.65L879.17 771.819C862.17 815.449 835.17 870.379 835.17 870.379H908.17C908.99 791.819 966.5 728.449 1037.36 728.449C1108.22 728.449 1165.69 791.819 1166.55 870.379H1385.48C1386.31 791.819 1443.82 728.449 1514.68 728.449C1528.62 728.446 1542.45 730.932 1555.52 735.79C1603.6 753.59 1639.1 801.949 1643.4 860.099C1643.51 861.099 1643.54 862.099 1643.61 863.009C1644.84 861.95 1645.96 860.763 1646.95 859.469C1648.49 858.901 1649.89 858.015 1651.07 856.869C1652.24 855.724 1653.16 854.344 1653.77 852.819C1672.17 812.379 1655 720.9 1655 720.9ZM1086.85 588.9C1118 492.28 1202 418.069 1202 418.069C1239.16 413.63 1276.52 411.18 1313.94 410.729C1316.81 428.409 1322.73 474.919 1324.05 564.449C1189.83 575.479 1086.81 588.889 1086.81 588.889L1086.85 588.9ZM1474.57 554.329L1469.57 554.589C1466.45 554.729 1463.36 554.909 1460.28 555.079C1458.81 555.139 1457.34 555.23 1455.87 555.31C1416.43 557.46 1377.67 560.16 1340.87 563.06C1339.47 525.9 1335.99 456.81 1328.42 410.65C1392.21 410.77 1434.74 416.75 1442.34 417.91L1443.56 418.079C1443.62 418.129 1443.67 418.19 1443.7 418.259C1444.78 419.259 1445.82 420.379 1446.86 421.449C1447.25 421.859 1447.68 422.289 1448.08 422.729C1502.29 479.079 1537.86 551.66 1537.86 551.66C1516.8 552.34 1495.57 553.239 1474.53 554.319L1474.57 554.329Z" fill="#E88B1C"/>
<path d="M1474.53 554.33L1469.53 554.59C1457.87 477.39 1448.23 437.51 1442.35 417.91L1443.57 418.08C1443.63 418.13 1443.68 418.191 1443.71 418.26C1444.79 419.26 1445.83 420.38 1446.87 421.45C1461.33 473.82 1470.08 524.45 1474.53 554.33Z" fill="black"/>
<path d="M865.93 870.35H900.14C915.14 870.35 928.27 862.04 931.72 850.2C940.6 819.74 966.59 764.26 1039.28 752.26C1115.88 739.62 1141.22 813.46 1149.03 850.34C1151.48 861.9 1163.8 870.34 1178.28 870.34H1186.48C1186.48 870.34 1186.48 690.34 1026.21 704.48C913.21 714.48 881.21 850.85 881.21 850.85L865.93 870.35Z" fill="#FFCC00"/>
<path d="M865.93 870.35H900.14C915.14 870.35 928.27 862.04 931.72 850.2C940.6 819.74 966.59 764.26 1039.28 752.26C1115.88 739.62 1141.22 813.46 1149.03 850.34C1151.48 861.9 1163.8 870.34 1178.28 870.34H1186.48C1186.48 870.34 1186.48 690.34 1026.21 704.48C913.21 714.48 881.21 850.85 881.21 850.85L865.93 870.35Z" fill="#CC7A19"/>
<path d="M1334.42 870.35H1368.63C1383.63 870.35 1396.75 862.04 1400.21 850.2C1409.09 819.74 1435.07 764.26 1507.76 752.26C1584.36 739.62 1609.7 813.46 1617.52 850.34C1619.97 861.9 1632.29 870.34 1646.77 870.34H1654.97C1654.97 870.34 1654.97 690.34 1494.7 704.48C1381.7 714.48 1349.7 850.85 1349.7 850.85L1334.42 870.35Z" fill="#FFCC00"/>
<path d="M1334.42 870.35H1368.63C1383.63 870.35 1396.75 862.04 1400.21 850.2C1409.09 819.74 1435.07 764.26 1507.76 752.26C1584.36 739.62 1609.7 813.46 1617.52 850.34C1619.97 861.9 1632.29 870.34 1646.77 870.34H1654.97C1654.97 870.34 1654.97 690.34 1494.7 704.48C1381.7 714.48 1349.7 850.85 1349.7 850.85L1334.42 870.35Z" fill="#CC7A19"/>
<path opacity="0.2" d="M1050.49 703.85C1070.31 702.56 1090.23 707.9 1107.26 716.3C1124.49 724.75 1138.48 736.98 1149.82 750.3C1160.65 763.51 1169.57 778.181 1176.31 793.88C1182.76 809.011 1187.81 824.7 1191.41 840.75L1186.48 837.39L1271.93 837.11L1357.39 837.34L1352.39 840.56C1357.6 824.216 1364.5 808.464 1372.99 793.56C1381.68 778.56 1391.82 763.99 1404.48 750.86C1417.45 737.076 1432.79 725.738 1449.77 717.39C1467.9 708.591 1487.75 703.909 1507.9 703.68C1497.96 704.594 1488.13 706.408 1478.52 709.1C1469.32 711.872 1460.41 715.557 1451.94 720.1C1436.14 728.988 1422 740.526 1410.11 754.21C1398.82 767.094 1389.12 781.286 1381.21 796.48C1373.35 811.049 1367.02 826.391 1362.31 842.26L1361.39 845.47H1357.39L1271.93 845.7L1186.48 845.42H1182.23L1181.54 842.08C1178.36 826.38 1173.81 810.989 1167.95 796.08C1161.98 780.774 1153.95 766.357 1144.07 753.23C1133.79 740 1121.07 727.83 1105.07 718.81C1089.07 709.79 1070.28 704 1050.49 703.85Z" fill="black"/>
<path d="M879.13 771.8C879.13 771.8 984.451 692.55 1086.81 710.58C1086.81 710.58 1039.45 690.91 946.81 703.69L865.98 746.6L879.13 771.8ZM1094.43 611.29C1094.43 611.29 1503.14 572.17 1592.57 578.86L1557.29 554.59C1557.29 554.59 1145.18 578.46 1094.43 611.29Z" fill="#FF991F"/>
<path opacity="0.7" d="M1616.34 634.62C1596.73 605.12 1576.11 596.76 1576.11 596.76L1552.91 569.67C1566.79 569.73 1580.47 573.031 1592.85 579.31C1594.68 582.36 1604.86 600 1616.34 634.62Z" fill="white"/>
<path d="M1209.69 597.05C1209.69 603.12 1132.99 613.4 1131.78 613.4C1130.57 613.4 1115.64 611.31 1115.64 611.31L1088.35 613.4C1087.55 612.738 1086.87 611.939 1086.35 611.04C1085.27 609.26 1084.62 607.254 1084.45 605.18C1084.37 604.516 1084.33 603.848 1084.34 603.18C1083.91 597.61 1086.81 588.84 1086.81 588.84C1103.16 589.57 1113.24 584.2 1118.01 580.71C1122.01 572.71 1127.37 564.14 1133.28 560.42C1133.28 560.42 1187.21 563.5 1198.47 568.72C1198.47 568.72 1198.54 568.72 1198.58 568.78C1209.62 574.06 1209.69 597.05 1209.69 597.05Z" fill="black"/>
<path d="M1209.69 597.05L1206.75 595.05C1206.75 595.05 1122.75 608.84 1122.06 595.05C1121.37 581.26 1133.28 560.5 1133.28 560.5C1133.28 560.5 1187.53 563.61 1198.58 568.86C1209.63 574.11 1209.69 597.05 1209.69 597.05Z" fill="#FF991F"/>
<path opacity="0.2" d="M1209.69 597.05C1209.69 603.12 1132.99 613.4 1131.78 613.4C1130.57 613.4 1115.64 611.31 1115.64 611.31L1088.35 613.4C1087.55 612.738 1086.87 611.939 1086.35 611.04C1085.27 609.26 1084.62 607.254 1084.45 605.18L1115.64 600.24L1122.31 593.51C1162.5 592.51 1181.84 590.65 1189.85 589.62C1192.61 589.27 1194.62 587.349 1194.6 585.079C1194.6 581.399 1194.6 576.08 1194.6 573.51C1194.67 571.91 1196.36 570.23 1198.44 568.77C1198.44 568.77 1198.51 568.769 1198.55 568.829C1209.62 574.059 1209.69 597.05 1209.69 597.05Z" fill="black"/>
</svg>
