<svg width="394" height="432" viewBox="0 0 394 432" fill="none" xmlns="http://www.w3.org/2000/svg">
<g clip-path="url(#clip0_478_2522)">
<path d="M108.02 183.23C108.02 180.63 109.9 178.51 112.22 178.51C113.35 178.51 170.97 180.19 180.83 180.19C183.15 180.19 185.03 182.3 185.03 184.91V250.95C185.03 253.55 183.15 255.67 180.83 255.67C166.86 255.67 126.19 255.67 112.22 255.67C109.9 255.67 108.02 253.56 108.02 250.95V183.23Z" fill="#F9C5B8"/>
<path d="M0.0698242 396.81V297.25C0.0698242 274.14 9.51982 253.13 24.7498 237.9C39.9798 222.67 60.9798 213.22 84.0998 213.22H108.03C109.48 213.22 110.77 213.87 111.64 214.9L146.54 250.53L181.69 214.64C182.61 213.7 183.83 213.24 185.04 213.24V213.23H208.97C225.29 213.23 240.58 217.96 253.53 226.12C266.9 234.54 277.75 246.62 284.67 260.92C285.8 263.26 284.82 266.07 282.48 267.2C282.27 267.3 282.06 267.38 281.85 267.45V267.46C265.59 272.6 251.61 282.83 241.76 296.27C232.17 309.37 226.5 325.54 226.5 343.05C226.5 352.55 228.16 361.64 231.2 370.03C234.36 378.76 239.02 386.78 244.86 393.79C246.53 395.78 246.26 398.75 244.27 400.42C243.39 401.16 242.32 401.52 241.25 401.52V401.53H4.78983C2.17983 401.52 0.0698242 399.41 0.0698242 396.81Z" fill="#425B82"/>
<path d="M46.4302 222.2C57.7702 216.47 70.5702 213.23 84.0902 213.23H85.4402C85.4402 213.32 85.4402 213.42 85.4402 213.51V287.55H207.6V213.51C207.6 213.42 207.6 213.32 207.6 213.23H208.95C222.46 213.23 235.26 216.47 246.61 222.21V282.29C248.58 282.35 250.53 283.11 252.06 284.58L252.14 284.65C248.31 288.17 244.82 292.06 241.74 296.27C232.15 309.37 226.48 325.54 226.48 343.05C226.48 352.55 228.14 361.64 231.18 370.03C234.34 378.76 239 386.78 244.84 393.79C246.51 395.78 246.24 398.75 244.25 400.42C243.37 401.16 242.3 401.52 241.23 401.52V401.53H46.4302V222.2Z" fill="#30435F"/>
<path d="M194.74 401.52H98.3198V370.08C98.3198 367.48 100.43 365.36 103.04 365.36H190.03C192.63 365.36 194.75 367.47 194.75 370.08V401.52H194.74Z" fill="#667A9A"/>
<path d="M212.85 74.4902H82.2102C79.6102 74.4902 77.4902 72.3802 77.4902 69.7702C77.4902 50.4302 85.3302 32.9202 98.0002 20.2502C110.67 7.58023 128.18 -0.259766 147.52 -0.259766C166.86 -0.259766 184.37 7.58023 197.04 20.2502C209.71 32.9202 217.55 50.4302 217.55 69.7702C217.56 72.3802 215.45 74.4902 212.85 74.4902Z" fill="#425B82"/>
<path d="M175.62 307.07C180.9 307.07 185.68 309.21 189.14 312.67C192.6 316.13 194.74 320.91 194.74 326.19C194.74 331.47 192.6 336.25 189.14 339.71C185.68 343.17 180.9 345.31 175.62 345.31C170.34 345.31 165.56 343.17 162.1 339.71C158.64 336.25 156.5 331.47 156.5 326.19C156.5 320.91 158.64 316.13 162.1 312.67C165.56 309.21 170.34 307.07 175.62 307.07ZM117.44 307.07C122.72 307.07 127.5 309.21 130.96 312.67C134.42 316.13 136.56 320.91 136.56 326.19C136.56 331.47 134.42 336.25 130.96 339.71C127.5 343.17 122.72 345.31 117.44 345.31C112.16 345.31 107.38 343.17 103.92 339.71C100.46 336.25 98.3198 331.47 98.3198 326.19C98.3198 320.91 100.46 316.13 103.92 312.67C107.38 309.21 112.16 307.07 117.44 307.07Z" fill="#667A9A"/>
<path fill-rule="evenodd" clip-rule="evenodd" d="M368.47 405.76C352.42 421.81 330.25 431.74 305.75 431.74C281.26 431.74 259.08 421.81 243.03 405.76C226.98 389.71 217.05 367.53 217.05 343.04C217.05 318.55 226.98 296.37 243.03 280.32C259.08 264.27 281.25 254.34 305.75 254.34C330.24 254.34 352.42 264.27 368.47 280.32C384.52 296.37 394.45 318.55 394.45 343.04C394.45 367.54 384.52 389.71 368.47 405.76Z" fill="#5C9CEE"/>
<path d="M79.9397 100.13L215.17 100.62H215.31C217.9 100.67 219.97 102.82 219.92 105.41C218.94 152.22 200.81 182.52 177.75 196.17C168.23 201.81 157.86 204.62 147.46 204.6C137.06 204.58 126.69 201.74 117.17 196.06C94.1097 182.31 76.0197 151.89 75.1597 104.9C75.1197 102.31 77.1897 100.17 79.7797 100.13C79.8297 100.13 79.8797 100.13 79.9397 100.13Z" fill="#F9C5B8"/>
<path d="M228.25 109.55H66.8098C64.2098 109.55 62.0898 107.44 62.0898 104.83V70.0598C62.0898 67.4598 64.1998 65.3398 66.8098 65.3398H228.26C230.86 65.3398 232.98 67.4498 232.98 70.0598V104.83C232.97 107.43 230.86 109.55 228.25 109.55Z" fill="#30435F"/>
<path d="M177.74 196.17C168.22 201.81 157.85 204.62 147.45 204.6C137.05 204.58 126.68 201.74 117.16 196.06C114.01 194.18 110.95 191.99 108.02 189.49V210.9C131.95 214.2 150.46 213.61 164.44 211.42C172.89 210.1 179.69 208.19 185.03 206.21V191.15C182.67 193.02 180.24 194.69 177.74 196.17Z" fill="#FAB1A6"/>
<path fill-rule="evenodd" clip-rule="evenodd" d="M149.38 137.2C149.91 136.23 151.12 135.88 152.08 136.4C153.05 136.93 153.4 138.14 152.88 139.1L144.88 153.73C144.88 153.74 144.87 153.74 144.87 153.75C144.87 153.82 144.94 153.94 145.06 154.09C145.29 154.37 145.62 154.63 146.01 154.84C146.54 155.13 147.14 155.31 147.66 155.31H152.19C153.29 155.31 154.19 156.21 154.19 157.31C154.19 158.41 153.29 159.31 152.19 159.31H147.66C146.48 159.31 145.2 158.94 144.1 158.34C143.26 157.88 142.51 157.28 141.95 156.59C141.28 155.76 140.87 154.79 140.87 153.75C140.87 153.11 141.03 152.46 141.38 151.83L149.38 137.2Z" fill="#FB9F95"/>
<path d="M119.1 139.34C121.618 139.34 123.66 135.462 123.66 130.68C123.66 125.897 121.618 122.02 119.1 122.02C116.582 122.02 114.54 125.897 114.54 130.68C114.54 135.462 116.582 139.34 119.1 139.34Z" fill="#333333"/>
<path fill-rule="evenodd" clip-rule="evenodd" d="M175.96 139.34C178.47 139.34 180.52 135.45 180.52 130.68C180.52 125.91 178.47 122.02 175.96 122.02C173.45 122.02 171.4 125.91 171.4 130.68C171.4 135.45 173.45 139.34 175.96 139.34Z" fill="#333333"/>
<path fill-rule="evenodd" clip-rule="evenodd" d="M147.53 182.69C166.65 183.55 167.27 166.41 167.27 166.41H127.8C127.8 166.41 128.41 183.55 147.53 182.69Z" fill="#FF808C"/>
<path fill-rule="evenodd" clip-rule="evenodd" d="M164.15 166.41H130.91V167.77C130.91 169.43 132.27 170.79 133.93 170.79H161.13C162.79 170.79 164.15 169.43 164.15 167.77V166.41Z" fill="#F5F5FC"/>
<path fill-rule="evenodd" clip-rule="evenodd" d="M147.53 182.69C154.81 183.02 159.41 180.73 162.31 177.78C159.08 174.34 153.67 172.08 147.53 172.08C141.39 172.08 135.98 174.34 132.75 177.78C135.65 180.73 140.25 183.02 147.53 182.69Z" fill="#F25A6B"/>
<path fill-rule="evenodd" clip-rule="evenodd" d="M325.14 389.851C323.1 390.701 320.97 391.421 318.78 391.991V400.541C318.78 403.141 316.67 405.261 314.06 405.261H297.46C294.86 405.261 292.74 403.151 292.74 400.541V392.001C290.54 391.421 288.42 390.701 286.38 389.861C284.3 389.001 282.29 388.001 280.35 386.871L274.3 392.921C272.46 394.761 269.47 394.761 267.63 392.921L255.89 381.181C254.05 379.341 254.05 376.351 255.89 374.511L261.94 368.461C260.81 366.521 259.81 364.511 258.95 362.431C258.1 360.391 257.38 358.261 256.8 356.061H248.25C245.65 356.061 243.53 353.951 243.53 351.341V334.741C243.53 332.141 245.64 330.021 248.25 330.021H256.8C257.38 327.821 258.1 325.701 258.94 323.661C259.8 321.581 260.8 319.571 261.93 317.631L255.88 311.581C254.04 309.741 254.04 306.751 255.88 304.911L267.62 293.171C269.46 291.331 272.45 291.331 274.29 293.171L280.34 299.221C282.28 298.091 284.29 297.091 286.37 296.231C288.41 295.381 290.54 294.661 292.74 294.081V285.531C292.74 282.931 294.85 280.811 297.46 280.811H314.06C316.66 280.811 318.78 282.921 318.78 285.531V294.081C320.98 294.661 323.1 295.381 325.14 296.221C327.22 297.081 329.23 298.081 331.17 299.211L337.22 293.161C339.06 291.321 342.05 291.321 343.89 293.161L355.63 304.901C357.47 306.741 357.47 309.731 355.63 311.571L349.58 317.621C350.71 319.561 351.71 321.571 352.57 323.651C353.42 325.691 354.14 327.821 354.72 330.021H363.27C365.87 330.021 367.99 332.131 367.99 334.741V351.341C367.99 353.941 365.88 356.061 363.27 356.061H354.72C354.14 358.261 353.42 360.381 352.58 362.421C351.72 364.501 350.72 366.511 349.59 368.451L355.64 374.501C357.48 376.341 357.48 379.331 355.64 381.171L343.9 392.911C342.06 394.751 339.07 394.751 337.23 392.911L331.18 386.861C329.23 387.991 327.21 388.991 325.14 389.851Z" fill="white"/>
<path fill-rule="evenodd" clip-rule="evenodd" d="M325.41 362.7C320.38 367.73 313.43 370.84 305.75 370.84C298.07 370.84 291.12 367.73 286.09 362.7C281.06 357.67 277.95 350.72 277.95 343.04C277.95 335.36 281.06 328.41 286.09 323.38C291.12 318.35 298.07 315.24 305.75 315.24C313.43 315.24 320.38 318.35 325.41 323.38C330.44 328.41 333.55 335.36 333.55 343.04C333.56 350.72 330.45 357.67 325.41 362.7Z" fill="#5C9CEE"/>
</g>
<defs>
<clipPath id="clip0_478_2522">
<rect width="394" height="432" fill="white"/>
</clipPath>
</defs>
</svg>
